<svg width="32" height="32" viewBox="0 0 32 32" fill="none" xmlns="http://www.w3.org/2000/svg">
<path d="M19.0004 23C19.0004 23.7956 18.6843 24.5587 18.1217 25.1213C17.5591 25.6839 16.796 26 16.0004 26C15.2047 26 14.4416 25.6839 13.879 25.1213C13.3164 24.5587 13.0004 23.7956 13.0004 23M16.7214 9.003L15.2554 9C11.9114 8.992 9.00835 11.709 8.98535 15V18.79C8.98535 19.58 8.88535 20.351 8.45435 21.008L8.16735 21.446C7.73035 22.11 8.20035 23 8.98535 23H23.0154C23.8004 23 24.2694 22.11 23.8334 21.446L23.5464 21.008C23.1164 20.351 23.0154 19.579 23.0154 18.789V15.001C22.9754 11.709 20.0654 9.011 16.7214 9.003ZM16.0004 6C16.5308 6 17.0395 6.21071 17.4146 6.58579C17.7896 6.96086 18.0004 7.46957 18.0004 8V9H14.0004V8C14.0004 7.46957 14.2111 6.96086 14.5861 6.58579C14.9612 6.21071 15.4699 6 16.0004 6Z" stroke="#3C4450" stroke-width="1.5" stroke-linecap="round" stroke-linejoin="round"/>
</svg>
