<svg width="21" height="24" viewBox="0 0 21 24" fill="none" xmlns="http://www.w3.org/2000/svg">
<path d="M20.7118 5.91275L16.7288 9.91571C16.5296 9.35808 16.2574 8.8602 15.9122 8.42207C15.5671 7.97066 15.1754 7.59227 14.7373 7.2869C14.3124 6.98154 13.8477 6.74919 13.3432 6.58987C12.8387 6.43055 12.3209 6.35089 11.7898 6.35089C11.0463 6.35089 10.3426 6.50357 9.67879 6.80894C9.02823 7.1143 8.45732 7.5458 7.96608 8.10343C7.48812 8.64777 7.10973 9.29834 6.83092 10.0551C6.5521 10.8119 6.4127 11.6483 6.4127 12.5644C6.4127 13.3079 6.5521 14.005 6.83092 14.6555C7.10973 15.3061 7.48812 15.877 7.96608 16.3682C8.45732 16.8595 9.02823 17.2445 9.67879 17.5233C10.3426 17.8021 11.0463 17.9415 11.7898 17.9415C12.3209 17.9415 12.832 17.8685 13.3233 17.7225C13.8145 17.5764 14.2726 17.3706 14.6974 17.1051C15.1356 16.8263 15.5206 16.4944 15.8525 16.1093C16.1977 15.711 16.4765 15.2729 16.6889 14.7949L20.672 18.7979C20.1675 19.5148 19.5833 20.1588 18.9194 20.7297C18.2689 21.3006 17.5586 21.7852 16.7885 22.1835C16.0317 22.5818 15.2285 22.8805 14.3788 23.0797C13.5423 23.2921 12.6793 23.3983 11.7898 23.3983C10.2895 23.3983 8.87554 23.1195 7.54786 22.5619C6.23346 21.991 5.07838 21.2143 4.08262 20.2318C3.10013 19.2493 2.32344 18.1009 1.75254 16.7865C1.18164 15.4721 0.896184 14.0647 0.896184 12.5644C0.896184 10.9314 1.18164 9.40455 1.75254 7.98393C2.32344 6.56332 3.10013 5.32857 4.08262 4.27971C5.07838 3.21756 6.23346 2.38112 7.54786 1.77039C8.87554 1.15966 10.2895 0.854291 11.7898 0.854291C12.6793 0.854291 13.549 0.967143 14.3987 1.19285C15.2617 1.41855 16.0782 1.75047 16.8483 2.18861C17.6316 2.61347 18.3485 3.1379 18.9991 3.76191C19.6629 4.38592 20.2338 5.10287 20.7118 5.91275Z" fill="white"/>
</svg>
