<svg xmlns="http://www.w3.org/2000/svg" width="24" height="24" viewBox="0 0 24 24" fill="none">
  <path d="M5.72 5.72006C5.86062 5.57961 6.05125 5.50072 6.25 5.50072C6.44875 5.50072 6.63937 5.57961 6.78 5.72006L12 10.9401L17.22 5.72006C17.3117 5.62133 17.4283 5.54916 17.5575 5.51115C17.6868 5.47313 17.8239 5.47068 17.9544 5.50406C18.0849 5.53743 18.204 5.60539 18.2992 5.70078C18.3943 5.79617 18.462 5.91545 18.495 6.04606C18.5284 6.17643 18.5261 6.31341 18.4882 6.44257C18.4504 6.57173 18.3785 6.68832 18.28 6.78006L13.06 12.0001L18.28 17.2201C18.3787 17.3117 18.4509 17.4283 18.4889 17.5576C18.5269 17.6868 18.5294 17.8239 18.496 17.9545C18.4626 18.085 18.3947 18.2041 18.2993 18.2992C18.2039 18.3944 18.0846 18.462 17.954 18.4951C17.8236 18.5285 17.6866 18.5261 17.5575 18.4883C17.4283 18.4505 17.3117 18.3785 17.22 18.2801L12 13.0601L6.78 18.2801C6.63774 18.4125 6.44968 18.4846 6.25537 18.4812C6.06105 18.4779 5.8756 18.3993 5.738 18.2621C5.60075 18.1245 5.5222 17.939 5.51884 17.7447C5.51548 17.5504 5.58759 17.3623 5.72 17.2201L10.94 12.0001L5.72 6.78006C5.57955 6.63943 5.50066 6.44881 5.50066 6.25006C5.50066 6.05131 5.57955 5.86068 5.72 5.72006Z" fill="black"/>
</svg>