<svg xmlns="http://www.w3.org/2000/svg" width="24" height="24" viewBox="0 0 24 24" fill="none">
<path d="M10.8 18.2998C10.8 17.902 10.958 17.5204 11.2393 17.2391C11.5206 16.9578 11.9022 16.7998 12.3 16.7998C12.6978 16.7998 13.0793 16.9578 13.3606 17.2391C13.642 17.5204 13.8 17.902 13.8 18.2998C13.8 18.6976 13.642 19.0792 13.3606 19.3605C13.0793 19.6418 12.6978 19.7998 12.3 19.7998C11.9022 19.7998 11.5206 19.6418 11.2393 19.3605C10.958 19.0792 10.8 18.6976 10.8 18.2998ZM10.8 12.2998C10.8 11.902 10.958 11.5204 11.2393 11.2391C11.5206 10.9578 11.9022 10.7998 12.3 10.7998C12.6978 10.7998 13.0793 10.9578 13.3606 11.2391C13.642 11.5204 13.8 11.902 13.8 12.2998C13.8 12.6976 13.642 13.0792 13.3606 13.3605C13.0793 13.6418 12.6978 13.7998 12.3 13.7998C11.9022 13.7998 11.5206 13.6418 11.2393 13.3605C10.958 13.0792 10.8 12.6976 10.8 12.2998ZM10.8 6.2998C10.8 5.90198 10.958 5.52045 11.2393 5.23914C11.5206 4.95784 11.9022 4.7998 12.3 4.7998C12.6978 4.7998 13.0793 4.95784 13.3606 5.23914C13.642 5.52045 13.8 5.90198 13.8 6.2998C13.8 6.69763 13.642 7.07916 13.3606 7.36047C13.0793 7.64177 12.6978 7.7998 12.3 7.7998C11.9022 7.7998 11.5206 7.64177 11.2393 7.36047C10.958 7.07916 10.8 6.69763 10.8 6.2998Z" fill="black"/>
</svg>