<svg xmlns="http://www.w3.org/2000/svg" width="24" height="25" viewBox="0 0 24 25" fill="none">
  <g clip-path="url(#clip0_321_278)">
    <g opacity="0.1">
      <path d="M9 5C9.39782 5 9.77936 5.15804 10.0607 5.43934C10.342 5.72064 10.5 6.10218 10.5 6.5C10.5 6.89782 10.342 7.27936 10.0607 7.56066C9.77936 7.84196 9.39782 8 9 8C8.60218 8 8.22064 7.84196 7.93934 7.56066C7.65804 7.27936 7.5 6.89782 7.5 6.5C7.5 6.10218 7.65804 5.72064 7.93934 5.43934C8.22064 5.15804 8.60218 5 9 5ZM10.5 12.5C10.5 12.1022 10.342 11.7206 10.0607 11.4393C9.77936 11.158 9.39782 11 9 11C8.60218 11 8.22064 11.158 7.93934 11.4393C7.65804 11.7206 7.5 12.1022 7.5 12.5C7.5 12.8978 7.65804 13.2794 7.93934 13.5607C8.22064 13.842 8.60218 14 9 14C9.39782 14 9.77936 13.842 10.0607 13.5607C10.342 13.2794 10.5 12.8978 10.5 12.5ZM10.5 18.5C10.5 18.1022 10.342 17.7206 10.0607 17.4393C9.77936 17.158 9.39782 17 9 17C8.60218 17 8.22064 17.158 7.93934 17.4393C7.65804 17.7206 7.5 18.1022 7.5 18.5C7.5 18.8978 7.65804 19.2794 7.93934 19.5607C8.22064 19.842 8.60218 20 9 20C9.39782 20 9.77936 19.842 10.0607 19.5607C10.342 19.2794 10.5 18.8978 10.5 18.5ZM16.5 12.5C16.5 12.1022 16.342 11.7206 16.0607 11.4393C15.7794 11.158 15.3978 11 15 11C14.6022 11 14.2206 11.158 13.9393 11.4393C13.658 11.7206 13.5 12.1022 13.5 12.5C13.5 12.8978 13.658 13.2794 13.9393 13.5607C14.2206 13.842 14.6022 14 15 14C15.3978 14 15.7794 13.842 16.0607 13.5607C16.342 13.2794 16.5 12.8978 16.5 12.5ZM15 17C15.3978 17 15.7794 17.158 16.0607 17.4393C16.342 17.7206 16.5 18.1022 16.5 18.5C16.5 18.8978 16.342 19.2794 16.0607 19.5607C15.7794 19.842 15.3978 20 15 20C14.6022 20 14.2206 19.842 13.9393 19.5607C13.658 19.2794 13.5 18.8978 13.5 18.5C13.5 18.1022 13.658 17.7206 13.9393 17.4393C14.2206 17.158 14.6022 17 15 17ZM16.5 6.5C16.5 6.10218 16.342 5.72064 16.0607 5.43934C15.7794 5.15804 15.3978 5 15 5C14.6022 5 14.2206 5.15804 13.9393 5.43934C13.658 5.72064 13.5 6.10218 13.5 6.5C13.5 6.89782 13.658 7.27936 13.9393 7.56066C14.2206 7.84196 14.6022 8 15 8C15.3978 8 15.7794 7.84196 16.0607 7.56066C16.342 7.27936 16.5 6.89782 16.5 6.5Z" fill="black"/>
    </g>
  </g>
  <defs>
    <clipPath id="clip0_321_278">
      <rect width="24" height="24" fill="white" transform="translate(0 0.5)"/>
    </clipPath>
  </defs>
</svg>