<svg width="8" height="31" viewBox="0 0 8 31" fill="none" xmlns="http://www.w3.org/2000/svg">
<path d="M7.48388 3.87549C7.48388 4.38001 7.3843 4.85133 7.18515 5.28947C6.99927 5.7276 6.74038 6.11263 6.40846 6.44455C6.07654 6.76319 5.68487 7.02209 5.23346 7.22124C4.79533 7.40712 4.324 7.50006 3.81948 7.50006C3.31496 7.50006 2.837 7.40712 2.38559 7.22124C1.94745 7.02209 1.56242 6.76319 1.2305 6.44455C0.91186 6.11263 0.652962 5.7276 0.45381 5.28947C0.267935 4.85133 0.174997 4.38001 0.174997 3.87549C0.174997 3.38425 0.267935 2.91956 0.45381 2.48142C0.652962 2.03001 0.91186 1.64499 1.2305 1.32634C1.56242 0.994422 1.94745 0.735525 2.38559 0.549649C2.837 0.350497 3.31496 0.250921 3.81948 0.250921C4.324 0.250921 4.79533 0.350497 5.23346 0.549649C5.68487 0.735525 6.07654 0.994422 6.40846 1.32634C6.74038 1.64499 6.99927 2.03001 7.18515 2.48142C7.3843 2.91956 7.48388 3.38425 7.48388 3.87549ZM6.54786 31H1.07118V9.67081H6.54786V31Z" fill="white"/>
</svg>
