<svg width="154" height="1103" viewBox="0 0 154 1103" fill="none" xmlns="http://www.w3.org/2000/svg">
<g clip-path="url(#clip0_1324_21235)">
<rect y="185.347" width="153.702" height="176.306" rx="14.4661" fill="#B3CDFF"/>
<path d="M46.122 324.764C56.0454 316.893 54.132 286.667 43.2705 272.402C39.4135 267.336 33.6223 269.826 29.2295 272.379C25.7335 274.41 23.7236 274.841 21.6729 274.665C16.0709 273.341 7.58865 275.469 2.97651 279.917C-5.56502 288.154 -9.95602 297.489 -12.1831 305.329C-13.624 310.401 -12.8454 316.241 -7.2907 318.156C-2.73016 319.729 5.13129 314.206 7.35914 309.984C7.7564 316.306 8.1922 319.448 9.77255 322.972C11.3529 326.497 14.7098 329.457 19.2782 330.075C24.6921 330.809 31.8828 328.83 36.1111 324.035C40.4268 327.84 44.2613 326.24 46.122 324.764Z" fill="#7EB1FF"/>
<path d="M32.4221 275.805C32.8171 278.971 32.5294 281.895 31.7655 284.059C30.9914 286.25 29.7874 287.523 28.4385 287.691C27.0895 287.86 25.6097 286.922 24.3208 284.988C23.0486 283.079 22.0511 280.314 21.656 277.148C21.2609 273.982 21.5486 271.058 22.3125 268.895C23.0866 266.703 24.2907 265.43 25.6396 265.262C26.9885 265.094 28.4684 266.031 29.7573 267.966C31.0294 269.875 32.027 272.639 32.4221 275.805Z" fill="white" stroke="#7EB1FF" stroke-width="0.904132"/>
<ellipse cx="29.238" cy="275.747" rx="2.72539" ry="6.78099" transform="rotate(-7.75016 29.238 275.747)" fill="white"/>
<ellipse cx="29.238" cy="275.747" rx="2.72539" ry="6.78099" transform="rotate(-7.75016 29.238 275.747)" fill="#0065FF"/>
<path d="M43.1935 274.222C43.5886 277.388 43.3009 280.312 42.537 282.476C41.7629 284.667 40.5589 285.94 39.2099 286.108C37.861 286.277 36.3811 285.339 35.0922 283.405C33.8201 281.496 32.8225 278.731 32.4274 275.565C32.0324 272.399 32.3201 269.475 33.084 267.312C33.8581 265.12 35.0621 263.847 36.411 263.679C37.76 263.511 39.2398 264.448 40.5287 266.382C41.8009 268.292 42.7984 271.056 43.1935 274.222Z" fill="white" stroke="#7EB1FF" stroke-width="0.904132"/>
<ellipse cx="39.9816" cy="274.168" rx="2.69731" ry="6.78099" transform="rotate(-7.75016 39.9816 274.168)" fill="white"/>
<ellipse cx="39.9816" cy="274.168" rx="2.69731" ry="6.78099" transform="rotate(-7.75016 39.9816 274.168)" fill="#0065FF"/>
<path d="M18.1752 285.754L17.3901 289.721" stroke="#0065FF" stroke-width="1.20551" stroke-linecap="round"/>
<path d="M15.5581 286.474L14.7729 290.44" stroke="#0065FF" stroke-width="1.20551" stroke-linecap="round"/>
<path d="M49.4174 278.355L48.6323 282.321" stroke="#0065FF" stroke-width="1.20551" stroke-linecap="round"/>
<path d="M46.8002 279.074L46.0151 283.041" stroke="#0065FF" stroke-width="1.20551" stroke-linecap="round"/>
<g opacity="0.7">
<path d="M132.885 240.077C127.268 237.836 124.004 223.749 127.018 215.736C128.089 212.891 131.078 213.237 133.437 213.803C135.315 214.253 136.293 214.175 137.207 213.814C139.588 212.441 143.759 212.253 146.478 213.655C151.513 216.253 154.8 219.922 156.892 223.203C158.246 225.325 158.689 228.103 156.411 229.74C154.54 231.084 150.188 229.634 148.591 228.008C149.275 230.954 149.506 232.451 149.266 234.28C149.026 236.108 147.896 237.922 145.891 238.83C143.515 239.907 139.955 239.987 137.364 238.373C135.911 240.704 133.938 240.498 132.885 240.077Z" fill="#7EB1FF"/>
<path d="M132.446 215.808C132.699 217.31 133.231 218.608 133.877 219.493C134.531 220.39 135.256 220.807 135.896 220.699C136.536 220.591 137.085 219.96 137.409 218.898C137.73 217.851 137.808 216.45 137.555 214.948C137.302 213.446 136.77 212.147 136.124 211.262C135.47 210.366 134.745 209.949 134.105 210.057C133.465 210.164 132.916 210.796 132.592 211.857C132.271 212.905 132.193 214.305 132.446 215.808Z" fill="white" stroke="#7EB1FF" stroke-width="0.431686"/>
<ellipse cx="1.30126" cy="3.23764" rx="1.30126" ry="3.23764" transform="matrix(-0.98791 0.15503 0.15503 0.98791 134.68 211.945)" fill="white"/>
<ellipse cx="1.30126" cy="3.23764" rx="1.30126" ry="3.23764" transform="matrix(-0.98791 0.15503 0.15503 0.98791 134.68 211.945)" fill="#0065FF"/>
<path d="M127.304 216.559C127.557 218.061 128.089 219.359 128.734 220.244C129.389 221.141 130.114 221.558 130.754 221.45C131.394 221.342 131.942 220.711 132.267 219.649C132.587 218.602 132.665 217.201 132.412 215.699C132.159 214.196 131.627 212.898 130.981 212.013C130.327 211.117 129.602 210.7 128.962 210.808C128.322 210.915 127.774 211.547 127.449 212.608C127.129 213.656 127.051 215.056 127.304 216.559Z" fill="white" stroke="#7EB1FF" stroke-width="0.431686"/>
<ellipse cx="1.28786" cy="3.23764" rx="1.28786" ry="3.23764" transform="matrix(-0.98791 0.15503 0.15503 0.98791 129.535 212.696)" fill="white"/>
<ellipse cx="1.28786" cy="3.23764" rx="1.28786" ry="3.23764" transform="matrix(-0.98791 0.15503 0.15503 0.98791 129.535 212.696)" fill="#0065FF"/>
<path d="M140.324 218.408L141.227 220.115" stroke="#0065FF" stroke-width="0.575581" stroke-linecap="round"/>
<path d="M141.621 218.378L142.524 220.085" stroke="#0065FF" stroke-width="0.575581" stroke-linecap="round"/>
<path d="M125.022 219.303L125.924 221.01" stroke="#0065FF" stroke-width="0.575581" stroke-linecap="round"/>
<path d="M126.318 219.274L127.221 220.98" stroke="#0065FF" stroke-width="0.575581" stroke-linecap="round"/>
</g>
</g>
<g clip-path="url(#clip1_1324_21235)">
<rect width="153.702" height="176.306" rx="14.4661" fill="#FFF1D5"/>
<path d="M75.4629 45.7646C90.2604 56.5059 96.9255 70.1551 95.2343 88.1244" stroke="#FFBE3F" stroke-width="3.61653" stroke-linecap="round"/>
<path d="M86.2441 20.748C111.901 39.3719 123.458 63.0381 120.525 94.1946" stroke="#FFBE3F" stroke-opacity="0.3" stroke-width="6.27061" stroke-linecap="round"/>
<path d="M87.2637 -22.6494C136.51 13.0976 158.692 58.5229 153.064 118.325" stroke="#FFBE3F" stroke-opacity="0.1" stroke-width="12.0359" stroke-linecap="round"/>
<path d="M9.08796 110.764C15.8199 118.393 35.0808 116.561 43.8698 114.691C30.405 144.423 47.7959 148.351 54.5279 139.374C74.1344 113.232 68.5528 56.9081 52.8449 55.2253C42.1859 54.0834 40.5029 66.4453 40.5029 73.1771C34.8927 64.5751 23.112 62.5179 18.063 69.8109C13.0141 77.1039 23.6736 92.2507 31.5279 97.2996C12.4539 90.5677 0.673 101.227 9.08796 110.764Z" fill="#7EB1FF"/>
<path d="M59.7982 84.09C60.2212 87.5098 59.7843 90.6797 58.7646 93.0344C57.7389 95.403 56.1775 96.8464 54.3958 97.0668C52.614 97.2872 50.748 96.2677 49.1761 94.2204C47.6134 92.1851 46.4173 89.2173 45.9943 85.7975C45.5713 82.3777 46.0082 79.2078 47.0279 76.8531C48.0536 74.4845 49.6149 73.0411 51.3967 72.8207C53.1785 72.6003 55.0445 73.6198 56.6164 75.667C58.1791 77.7024 59.3752 80.6702 59.7982 84.09Z" fill="white" stroke="#7EB1FF" stroke-width="1.12199"/>
<ellipse cx="55.2649" cy="84.1623" rx="3.28399" ry="6.14023" transform="rotate(-7.05123 55.2649 84.1623)" fill="#0065FF"/>
<path d="M42.829 75.4887C43.3966 71.8791 47.0123 68.6887 50.2882 68.6884" stroke="#0065FF" stroke-width="1.80826" stroke-linecap="round"/>
<path d="M60.5459 65.8317C62.8926 65.4636 65.0005 66.091 66.462 67.0591" stroke="#0065FF" stroke-width="1.80826" stroke-linecap="round"/>
<path d="M72.4133 79.9227C72.7845 82.9239 72.4005 85.7025 71.5083 87.7629C70.61 89.8372 69.2506 91.0834 67.715 91.2733C66.1795 91.4633 64.5574 90.5859 63.1808 88.793C61.8134 87.012 60.764 84.4108 60.3927 81.4096C60.0215 78.4084 60.4055 75.6298 61.2978 73.5693C62.196 71.495 63.5554 70.2489 65.091 70.0589C66.6265 69.869 68.2486 70.7464 69.6252 72.5393C70.9926 74.3202 72.0421 76.9215 72.4133 79.9227Z" fill="white" stroke="#7EB1FF" stroke-width="1.12199"/>
<ellipse cx="68.1789" cy="79.9797" rx="3.28399" ry="6.14023" transform="rotate(-7.05123 68.1789 79.9797)" fill="#0065FF"/>
</g>
<g clip-path="url(#clip2_1324_21235)">
<rect y="370.694" width="153.702" height="176.306" rx="14.4661" fill="#C7C7FF"/>
<g filter="url(#filter0_f_1324_21235)">
<path d="M81.8222 526.205H94.48C93.4252 525.904 92.1293 525.12 95.3842 524.397C98.639 523.674 107.59 518.671 111.659 516.26H120.7C132.454 516.26 150.084 517.164 150.536 521.232C150.988 525.301 147.33 527.414 123.864 529.37C102.165 531.178 84.0825 528.918 75.9453 528.013L81.8222 526.205Z" fill="url(#paint0_linear_1324_21235)"/>
</g>
<path d="M47.2288 435.112C23.3742 444.124 34.6389 461.396 43.2531 468.906C16.0719 471.626 25.3486 484.879 41.2629 487.529C20.7103 487.529 14.8151 494.156 15.4092 499.457C16.0034 504.758 20.7154 508.372 33.968 511.384C45.8952 514.095 63.1235 515.289 79.6892 514.697C98.9053 514.011 105.506 512.046 113.476 509.395C128.155 504.514 130.07 498.641 128.719 494.155C127.368 489.668 121.428 485.541 118.126 484.878C130.848 465.795 114.587 451.084 104.869 444.458C95.5919 437.39 71.0833 426.101 47.2288 435.112Z" fill="#7EB1FF"/>
<path d="M54.7477 452.527C56.1082 455.967 56.4306 459.36 55.8901 462.05C55.3473 464.751 53.9693 466.629 52.03 467.307C50.0908 467.986 47.7422 467.41 45.4541 465.699C43.1756 463.995 41.0615 461.228 39.7009 457.788C38.3403 454.348 38.018 450.955 38.5585 448.265C39.1012 445.564 40.4793 443.686 42.4185 443.007C44.3577 442.329 46.7063 442.905 48.9944 444.616C51.273 446.32 53.3871 449.087 54.7477 452.527Z" fill="white" stroke="#7EB1FF" stroke-width="1.56132"/>
<path d="M50.8118 455.564C52.3178 458.906 51.8589 462.293 49.787 463.128C47.7151 463.962 44.8146 461.93 43.3086 458.587C43.3086 458.587 44.9756 458.362 47.0475 457.528C49.1195 456.693 50.8081 455.568 50.8118 455.564Z" fill="#0065FF"/>
<path d="M40.1797 459.085C44.5639 459.818 51.5322 455.874 54.197 451.528" stroke="#7EB1FF" stroke-width="1.32525" stroke-linecap="round"/>
<path d="M74.1691 446.972C75.8339 450.749 76.339 454.519 75.8519 457.542C75.3627 460.577 73.9067 462.731 71.7734 463.57C69.6402 464.41 66.9966 463.869 64.3717 462.059C61.7578 460.256 59.2816 457.262 57.6167 453.485C55.9519 449.708 55.4468 445.938 55.9339 442.915C56.4231 439.88 57.8791 437.726 60.0124 436.887C62.1456 436.047 64.7892 436.588 67.4141 438.398C70.028 440.201 72.5042 443.195 74.1691 446.972Z" fill="white" stroke="#7EB1FF" stroke-width="1.74228"/>
<path d="M69.9047 450.531C71.7276 454.194 71.3614 457.99 69.0869 459.01C66.8123 460.03 63.4908 457.887 61.668 454.225C61.668 454.225 63.5171 453.903 65.7917 452.883C68.0662 451.863 69.9008 450.536 69.9047 450.531Z" fill="#0065FF"/>
<path d="M58.2012 454.911C63.1214 455.54 70.7222 450.844 73.507 445.883" stroke="#7EB1FF" stroke-width="1.47885" stroke-linecap="round"/>
<path d="M81.5911 435.116L85.5513 431.902L84.8453 439.898L90.8889 434.386" stroke="#96E6FF" stroke-width="1.09676" stroke-linecap="round"/>
<path d="M89.2752 414.452L98.6226 413.242L89.7517 425.131L104.606 422.328" stroke="#96E6FF" stroke-width="2.02686" stroke-linecap="round"/>
<path d="M97.1766 431.024L100.961 431.196L96.6214 435.284L102.697 435.209" stroke="#96E6FF" stroke-width="0.814622" stroke-linecap="round"/>
<path d="M135.619 525.3L140.14 529.821L135.619 534.342" stroke="#9A999E" stroke-width="1.13017" stroke-linecap="round" stroke-linejoin="round"/>
</g>
<g clip-path="url(#clip3_1324_21235)">
<rect y="741.347" width="153.702" height="176.306" rx="14.4661" fill="#B3CDFF"/>
<path d="M46.122 880.764C56.0454 872.893 54.132 842.667 43.2705 828.402C39.4135 823.336 33.6223 825.826 29.2295 828.379C25.7335 830.41 23.7236 830.841 21.6729 830.665C16.0709 829.341 7.58865 831.469 2.97651 835.917C-5.56502 844.154 -9.95602 853.489 -12.1831 861.329C-13.624 866.401 -12.8454 872.241 -7.2907 874.156C-2.73016 875.729 5.13129 870.206 7.35914 865.984C7.7564 872.306 8.1922 875.448 9.77255 878.972C11.3529 882.497 14.7098 885.457 19.2782 886.075C24.6921 886.809 31.8828 884.83 36.1111 880.035C40.4268 883.84 44.2613 882.24 46.122 880.764Z" fill="#7EB1FF"/>
<path d="M32.4221 831.805C32.8171 834.971 32.5294 837.895 31.7655 840.059C30.9914 842.25 29.7874 843.523 28.4385 843.691C27.0895 843.86 25.6097 842.922 24.3208 840.988C23.0486 839.079 22.0511 836.314 21.656 833.148C21.2609 829.982 21.5486 827.058 22.3125 824.895C23.0866 822.703 24.2907 821.43 25.6396 821.262C26.9885 821.094 28.4684 822.031 29.7573 823.966C31.0294 825.875 32.027 828.639 32.4221 831.805Z" fill="white" stroke="#7EB1FF" stroke-width="0.904132"/>
<ellipse cx="29.238" cy="831.747" rx="2.72539" ry="6.78099" transform="rotate(-7.75016 29.238 831.747)" fill="white"/>
<ellipse cx="29.238" cy="831.747" rx="2.72539" ry="6.78099" transform="rotate(-7.75016 29.238 831.747)" fill="#0065FF"/>
<path d="M43.1935 830.222C43.5886 833.388 43.3009 836.312 42.537 838.476C41.7629 840.667 40.5589 841.94 39.2099 842.108C37.861 842.277 36.3811 841.339 35.0922 839.405C33.8201 837.496 32.8225 834.731 32.4274 831.565C32.0324 828.399 32.3201 825.475 33.084 823.312C33.8581 821.12 35.0621 819.847 36.411 819.679C37.76 819.511 39.2398 820.448 40.5287 822.382C41.8009 824.292 42.7984 827.056 43.1935 830.222Z" fill="white" stroke="#7EB1FF" stroke-width="0.904132"/>
<ellipse cx="39.9816" cy="830.168" rx="2.69731" ry="6.78099" transform="rotate(-7.75016 39.9816 830.168)" fill="white"/>
<ellipse cx="39.9816" cy="830.168" rx="2.69731" ry="6.78099" transform="rotate(-7.75016 39.9816 830.168)" fill="#0065FF"/>
<path d="M18.1752 841.754L17.3901 845.721" stroke="#0065FF" stroke-width="1.20551" stroke-linecap="round"/>
<path d="M15.5581 842.474L14.7729 846.44" stroke="#0065FF" stroke-width="1.20551" stroke-linecap="round"/>
<path d="M49.4174 834.355L48.6323 838.321" stroke="#0065FF" stroke-width="1.20551" stroke-linecap="round"/>
<path d="M46.8002 835.074L46.0151 839.041" stroke="#0065FF" stroke-width="1.20551" stroke-linecap="round"/>
<g opacity="0.7">
<path d="M132.885 796.077C127.268 793.836 124.004 779.749 127.018 771.736C128.089 768.891 131.078 769.237 133.437 769.803C135.315 770.253 136.293 770.175 137.207 769.814C139.588 768.441 143.759 768.253 146.478 769.655C151.513 772.253 154.8 775.922 156.892 779.203C158.246 781.325 158.689 784.103 156.411 785.74C154.54 787.084 150.188 785.634 148.591 784.008C149.275 786.954 149.506 788.451 149.266 790.28C149.026 792.108 147.896 793.922 145.891 794.83C143.515 795.907 139.955 795.987 137.364 794.373C135.911 796.704 133.938 796.498 132.885 796.077Z" fill="#7EB1FF"/>
<path d="M132.446 771.808C132.699 773.31 133.231 774.608 133.877 775.493C134.531 776.39 135.256 776.807 135.896 776.699C136.536 776.591 137.085 775.96 137.409 774.898C137.73 773.851 137.808 772.45 137.555 770.948C137.302 769.446 136.77 768.147 136.124 767.262C135.47 766.366 134.745 765.949 134.105 766.057C133.465 766.164 132.916 766.796 132.592 767.857C132.271 768.905 132.193 770.305 132.446 771.808Z" fill="white" stroke="#7EB1FF" stroke-width="0.431686"/>
<ellipse cx="1.30126" cy="3.23764" rx="1.30126" ry="3.23764" transform="matrix(-0.98791 0.15503 0.15503 0.98791 134.68 767.945)" fill="white"/>
<ellipse cx="1.30126" cy="3.23764" rx="1.30126" ry="3.23764" transform="matrix(-0.98791 0.15503 0.15503 0.98791 134.68 767.945)" fill="#0065FF"/>
<path d="M127.304 772.559C127.557 774.061 128.089 775.359 128.734 776.244C129.389 777.141 130.114 777.558 130.754 777.45C131.394 777.342 131.942 776.711 132.267 775.649C132.587 774.602 132.665 773.201 132.412 771.699C132.159 770.196 131.627 768.898 130.981 768.013C130.327 767.117 129.602 766.7 128.962 766.808C128.322 766.915 127.774 767.547 127.449 768.608C127.129 769.656 127.051 771.056 127.304 772.559Z" fill="white" stroke="#7EB1FF" stroke-width="0.431686"/>
<ellipse cx="1.28786" cy="3.23764" rx="1.28786" ry="3.23764" transform="matrix(-0.98791 0.15503 0.15503 0.98791 129.535 768.696)" fill="white"/>
<ellipse cx="1.28786" cy="3.23764" rx="1.28786" ry="3.23764" transform="matrix(-0.98791 0.15503 0.15503 0.98791 129.535 768.696)" fill="#0065FF"/>
<path d="M140.324 774.408L141.227 776.115" stroke="#0065FF" stroke-width="0.575581" stroke-linecap="round"/>
<path d="M141.621 774.378L142.524 776.085" stroke="#0065FF" stroke-width="0.575581" stroke-linecap="round"/>
<path d="M125.022 775.303L125.924 777.01" stroke="#0065FF" stroke-width="0.575581" stroke-linecap="round"/>
<path d="M126.318 775.274L127.221 776.98" stroke="#0065FF" stroke-width="0.575581" stroke-linecap="round"/>
</g>
</g>
<g clip-path="url(#clip4_1324_21235)">
<rect y="556" width="153.702" height="176.306" rx="14.4661" fill="#FFF1D5"/>
<path d="M75.4629 601.765C90.2604 612.506 96.9255 626.155 95.2343 644.124" stroke="#FFBE3F" stroke-width="3.61653" stroke-linecap="round"/>
<path d="M86.2441 576.748C111.901 595.372 123.458 619.038 120.525 650.195" stroke="#FFBE3F" stroke-opacity="0.3" stroke-width="6.27061" stroke-linecap="round"/>
<path d="M87.2637 533.351C136.51 569.098 158.692 614.523 153.064 674.325" stroke="#FFBE3F" stroke-opacity="0.1" stroke-width="12.0359" stroke-linecap="round"/>
<path d="M9.08796 666.764C15.8199 674.393 35.0808 672.561 43.8698 670.691C30.405 700.423 47.7959 704.351 54.5279 695.374C74.1344 669.232 68.5528 612.908 52.8449 611.225C42.1859 610.083 40.5029 622.445 40.5029 629.177C34.8927 620.575 23.112 618.518 18.063 625.811C13.0141 633.104 23.6736 648.251 31.5279 653.3C12.4539 646.568 0.673 657.227 9.08796 666.764Z" fill="#7EB1FF"/>
<path d="M59.7982 640.09C60.2212 643.51 59.7843 646.68 58.7646 649.034C57.7389 651.403 56.1775 652.846 54.3958 653.067C52.614 653.287 50.748 652.268 49.1761 650.22C47.6134 648.185 46.4173 645.217 45.9943 641.797C45.5713 638.378 46.0082 635.208 47.0279 632.853C48.0536 630.485 49.6149 629.041 51.3967 628.821C53.1785 628.6 55.0445 629.62 56.6164 631.667C58.1791 633.702 59.3752 636.67 59.7982 640.09Z" fill="white" stroke="#7EB1FF" stroke-width="1.12199"/>
<ellipse cx="55.2649" cy="640.162" rx="3.28399" ry="6.14023" transform="rotate(-7.05123 55.2649 640.162)" fill="#0065FF"/>
<path d="M42.829 631.489C43.3966 627.879 47.0123 624.689 50.2882 624.688" stroke="#0065FF" stroke-width="1.80826" stroke-linecap="round"/>
<path d="M60.5459 621.832C62.8926 621.464 65.0005 622.091 66.462 623.059" stroke="#0065FF" stroke-width="1.80826" stroke-linecap="round"/>
<path d="M72.4133 635.923C72.7845 638.924 72.4005 641.702 71.5083 643.763C70.61 645.837 69.2506 647.083 67.715 647.273C66.1795 647.463 64.5574 646.586 63.1808 644.793C61.8134 643.012 60.764 640.411 60.3927 637.41C60.0215 634.408 60.4055 631.63 61.2978 629.569C62.196 627.495 63.5554 626.249 65.091 626.059C66.6265 625.869 68.2486 626.746 69.6252 628.539C70.9926 630.32 72.0421 632.922 72.4133 635.923Z" fill="white" stroke="#7EB1FF" stroke-width="1.12199"/>
<ellipse cx="68.1789" cy="635.98" rx="3.28399" ry="6.14023" transform="rotate(-7.05123 68.1789 635.98)" fill="#0065FF"/>
</g>
<g clip-path="url(#clip5_1324_21235)">
<rect y="926.694" width="153.702" height="176.306" rx="14.4661" fill="#C7C7FF"/>
<g filter="url(#filter1_f_1324_21235)">
<path d="M81.8222 1082.21H94.48C93.4252 1081.9 92.1293 1081.12 95.3842 1080.4C98.639 1079.67 107.59 1074.67 111.659 1072.26H120.7C132.454 1072.26 150.084 1073.16 150.536 1077.23C150.988 1081.3 147.33 1083.41 123.864 1085.37C102.165 1087.18 84.0825 1084.92 75.9453 1084.01L81.8222 1082.21Z" fill="url(#paint1_linear_1324_21235)"/>
</g>
<path d="M47.2288 991.112C23.3742 1000.12 34.6389 1017.4 43.2531 1024.91C16.0719 1027.63 25.3486 1040.88 41.2629 1043.53C20.7103 1043.53 14.8151 1050.16 15.4092 1055.46C16.0034 1060.76 20.7154 1064.37 33.968 1067.38C45.8952 1070.09 63.1235 1071.29 79.6892 1070.7C98.9053 1070.01 105.506 1068.05 113.476 1065.4C128.155 1060.51 130.07 1054.64 128.719 1050.16C127.368 1045.67 121.428 1041.54 118.126 1040.88C130.848 1021.79 114.587 1007.08 104.869 1000.46C95.5919 993.39 71.0833 982.101 47.2288 991.112Z" fill="#7EB1FF"/>
<path d="M54.7477 1008.53C56.1082 1011.97 56.4306 1015.36 55.8901 1018.05C55.3473 1020.75 53.9693 1022.63 52.03 1023.31C50.0908 1023.99 47.7422 1023.41 45.4541 1021.7C43.1756 1019.99 41.0615 1017.23 39.7009 1013.79C38.3403 1010.35 38.018 1006.96 38.5585 1004.27C39.1012 1001.56 40.4793 999.686 42.4185 999.007C44.3577 998.329 46.7063 998.905 48.9944 1000.62C51.273 1002.32 53.3871 1005.09 54.7477 1008.53Z" fill="white" stroke="#7EB1FF" stroke-width="1.56132"/>
<path d="M50.8118 1011.56C52.3178 1014.91 51.8589 1018.29 49.787 1019.13C47.7151 1019.96 44.8146 1017.93 43.3086 1014.59C43.3086 1014.59 44.9756 1014.36 47.0475 1013.53C49.1195 1012.69 50.8081 1011.57 50.8118 1011.56Z" fill="#0065FF"/>
<path d="M40.1797 1015.08C44.5639 1015.82 51.5322 1011.87 54.197 1007.53" stroke="#7EB1FF" stroke-width="1.32525" stroke-linecap="round"/>
<path d="M74.1691 1002.97C75.8339 1006.75 76.339 1010.52 75.8519 1013.54C75.3627 1016.58 73.9067 1018.73 71.7734 1019.57C69.6402 1020.41 66.9966 1019.87 64.3717 1018.06C61.7578 1016.26 59.2816 1013.26 57.6167 1009.49C55.9519 1005.71 55.4468 1001.94 55.9339 998.915C56.4231 995.88 57.8791 993.726 60.0124 992.887C62.1456 992.047 64.7892 992.588 67.4141 994.398C70.028 996.201 72.5042 999.195 74.1691 1002.97Z" fill="white" stroke="#7EB1FF" stroke-width="1.74228"/>
<path d="M69.9047 1006.53C71.7276 1010.19 71.3614 1013.99 69.0869 1015.01C66.8123 1016.03 63.4908 1013.89 61.668 1010.22C61.668 1010.22 63.5171 1009.9 65.7917 1008.88C68.0662 1007.86 69.9008 1006.54 69.9047 1006.53Z" fill="#0065FF"/>
<path d="M58.2012 1010.91C63.1214 1011.54 70.7222 1006.84 73.507 1001.88" stroke="#7EB1FF" stroke-width="1.47885" stroke-linecap="round"/>
<path d="M81.5911 991.116L85.5513 987.902L84.8453 995.898L90.8889 990.386" stroke="#96E6FF" stroke-width="1.09676" stroke-linecap="round"/>
<path d="M89.2752 970.452L98.6226 969.242L89.7517 981.131L104.606 978.328" stroke="#96E6FF" stroke-width="2.02686" stroke-linecap="round"/>
<path d="M97.1766 987.024L100.961 987.196L96.6214 991.284L102.697 991.209" stroke="#96E6FF" stroke-width="0.814622" stroke-linecap="round"/>
<path d="M135.619 1081.3L140.14 1085.82L135.619 1090.34" stroke="#9A999E" stroke-width="1.13017" stroke-linecap="round" stroke-linejoin="round"/>
</g>
<defs>
<filter id="filter0_f_1324_21235" x="74.137" y="514.452" width="78.2415" height="17.4085" filterUnits="userSpaceOnUse" color-interpolation-filters="sRGB">
<feFlood flood-opacity="0" result="BackgroundImageFix"/>
<feBlend mode="normal" in="SourceGraphic" in2="BackgroundImageFix" result="shape"/>
<feGaussianBlur stdDeviation="0.904132" result="effect1_foregroundBlur_1324_21235"/>
</filter>
<filter id="filter1_f_1324_21235" x="74.137" y="1070.45" width="78.2415" height="17.4085" filterUnits="userSpaceOnUse" color-interpolation-filters="sRGB">
<feFlood flood-opacity="0" result="BackgroundImageFix"/>
<feBlend mode="normal" in="SourceGraphic" in2="BackgroundImageFix" result="shape"/>
<feGaussianBlur stdDeviation="0.904132" result="effect1_foregroundBlur_1324_21235"/>
</filter>
<linearGradient id="paint0_linear_1324_21235" x1="84.9866" y1="526.205" x2="150.988" y2="522.589" gradientUnits="userSpaceOnUse">
<stop stop-color="#99BBDB"/>
<stop offset="0.597633" stop-color="#EDF5FC"/>
<stop offset="1" stop-color="white"/>
</linearGradient>
<linearGradient id="paint1_linear_1324_21235" x1="84.9866" y1="1082.21" x2="150.988" y2="1078.59" gradientUnits="userSpaceOnUse">
<stop stop-color="#99BBDB"/>
<stop offset="0.597633" stop-color="#EDF5FC"/>
<stop offset="1" stop-color="white"/>
</linearGradient>
<clipPath id="clip0_1324_21235">
<rect width="153.702" height="176.306" fill="white" transform="translate(0 185.347)"/>
</clipPath>
<clipPath id="clip1_1324_21235">
<rect width="153.702" height="176.306" fill="white"/>
</clipPath>
<clipPath id="clip2_1324_21235">
<rect y="370.694" width="153.702" height="176.306" rx="14.4661" fill="white"/>
</clipPath>
<clipPath id="clip3_1324_21235">
<rect width="153.702" height="176.306" fill="white" transform="translate(0 741.347)"/>
</clipPath>
<clipPath id="clip4_1324_21235">
<rect width="153.702" height="176.306" fill="white" transform="translate(0 556)"/>
</clipPath>
<clipPath id="clip5_1324_21235">
<rect y="926.694" width="153.702" height="176.306" rx="14.4661" fill="white"/>
</clipPath>
</defs>
</svg>
