<svg width="24" height="24" viewBox="0 0 24 24" fill="none" xmlns="http://www.w3.org/2000/svg">
<path d="M6.72013 17.7204C8.90718 17.7204 10.6801 15.9475 10.6801 13.7604C10.6801 11.5734 8.90718 9.80042 6.72013 9.80042C4.53308 9.80042 2.76013 11.5734 2.76013 13.7604C2.76013 15.9475 4.53308 17.7204 6.72013 17.7204Z" stroke="#46505E" stroke-width="1.5" stroke-linecap="round" stroke-linejoin="round"/>
<path d="M17.2802 8.92043C19.4672 8.92043 21.2402 7.14747 21.2402 4.96043C21.2402 2.77338 19.4672 1.00043 17.2802 1.00043C15.0931 1.00043 13.3202 2.77338 13.3202 4.96043C13.3202 7.14747 15.0931 8.92043 17.2802 8.92043Z" stroke="#46505E" stroke-width="1.5" stroke-linecap="round" stroke-linejoin="round"/>
<path d="M11.56 14.1996C11.56 12.4396 12.88 8.91956 17.28 8.91956C21.68 8.91956 23 12.4396 23 14.1996M1 22.9996C1 21.2396 2.32 17.7196 6.72 17.7196C11.12 17.7196 12.44 21.2396 12.44 22.9996" stroke="#46505E" stroke-width="1.5" stroke-linecap="round" stroke-linejoin="round"/>
</svg>
