<svg width="11" height="10" viewBox="0 0 11 10" fill="none" xmlns="http://www.w3.org/2000/svg">
<path d="M10.6367 10H8.68164V3C8.68164 2.86328 8.6543 2.73568 8.59961 2.61719C8.54948 2.4987 8.47884 2.39616 8.3877 2.30957C8.30111 2.21842 8.19857 2.14779 8.08008 2.09766C7.96159 2.04753 7.83398 2.02246 7.69727 2.02246C7.56055 2.02246 7.43294 2.04753 7.31445 2.09766C7.19596 2.14779 7.09115 2.21842 7 2.30957C6.91341 2.39616 6.84505 2.4987 6.79492 2.61719C6.74479 2.73568 6.71973 2.86328 6.71973 3V10H4.75781V3C4.75781 2.86328 4.73275 2.73568 4.68262 2.61719C4.63249 2.4987 4.56185 2.39616 4.4707 2.30957C4.38411 2.21842 4.28158 2.14779 4.16309 2.09766C4.0446 2.04753 3.91699 2.02246 3.78027 2.02246C3.64355 2.02246 3.51595 2.04753 3.39746 2.09766C3.27897 2.14779 3.17415 2.21842 3.08301 2.30957C2.99642 2.39616 2.92806 2.4987 2.87793 2.61719C2.8278 2.73568 2.80273 2.86328 2.80273 3V10H0.84082V3C0.84082 2.5944 0.916016 2.21387 1.06641 1.8584C1.22135 1.49837 1.43099 1.1862 1.69531 0.921875C1.96419 0.652995 2.27637 0.443359 2.63184 0.292969C2.99186 0.138021 3.37467 0.0605469 3.78027 0.0605469C4.14486 0.0605469 4.49577 0.126628 4.83301 0.258789C5.17025 0.386393 5.47331 0.573242 5.74219 0.819336C6.01107 0.573242 6.31185 0.386393 6.64453 0.258789C6.98177 0.126628 7.33268 0.0605469 7.69727 0.0605469C8.10286 0.0605469 8.4834 0.138021 8.83887 0.292969C9.19889 0.443359 9.51107 0.652995 9.77539 0.921875C10.0443 1.1862 10.2539 1.49837 10.4043 1.8584C10.5592 2.21387 10.6367 2.5944 10.6367 3V10Z" fill="currentColor"/>
</svg>
