<svg width="23" height="24" viewBox="0 0 23 24" fill="none" xmlns="http://www.w3.org/2000/svg">
<path d="M22.6834 12.1462C22.6834 13.7394 22.398 15.2264 21.8271 16.6072C21.2562 17.9747 20.4795 19.163 19.497 20.172C18.5145 21.1678 17.3594 21.9578 16.0317 22.542C14.7173 23.1129 13.3034 23.3983 11.7898 23.3983C10.2895 23.3983 8.87554 23.1129 7.54786 22.542C6.23346 21.9578 5.07838 21.1678 4.08262 20.172C3.10013 19.163 2.32344 17.9747 1.75254 16.6072C1.18164 15.2264 0.896184 13.7394 0.896184 12.1462C0.896184 10.5264 1.18164 9.02616 1.75254 7.64538C2.32344 6.26459 3.10013 5.07631 4.08262 4.08055C5.07838 3.07152 6.23346 2.28155 7.54786 1.71064C8.87554 1.13974 10.2895 0.854291 11.7898 0.854291C13.3034 0.854291 14.7173 1.12647 16.0317 1.67081C17.3594 2.20189 18.5145 2.9653 19.497 3.96106C20.4795 4.94355 21.2562 6.13182 21.8271 7.52588C22.398 8.90667 22.6834 10.4468 22.6834 12.1462ZM17.2067 12.1462C17.2067 11.2699 17.0607 10.48 16.7686 9.7763C16.4898 9.05936 16.1048 8.44862 15.6135 7.9441C15.1223 7.42631 14.5447 7.03464 13.8809 6.76911C13.2303 6.49029 12.5333 6.35089 11.7898 6.35089C11.0463 6.35089 10.3426 6.49029 9.67879 6.76911C9.02823 7.03464 8.45732 7.42631 7.96608 7.9441C7.48812 8.44862 7.10973 9.05936 6.83092 9.7763C6.5521 10.48 6.4127 11.2699 6.4127 12.1462C6.4127 12.9694 6.5521 13.7328 6.83092 14.4365C7.10973 15.1401 7.48812 15.7509 7.96608 16.2687C8.45732 16.7865 9.02823 17.198 9.67879 17.5034C10.3426 17.7955 11.0463 17.9415 11.7898 17.9415C12.5333 17.9415 13.2303 17.8021 13.8809 17.5233C14.5447 17.2445 15.1223 16.8528 15.6135 16.3483C16.1048 15.8438 16.4898 15.2331 16.7686 14.5161C17.0607 13.7992 17.2067 13.0092 17.2067 12.1462Z" fill="white"/>
</svg>
