<svg width="16" height="16" viewBox="0 0 16 16" fill="none" xmlns="http://www.w3.org/2000/svg">
<path d="M15.2059 10.8084C14.563 9.70262 14.2216 8.11539 14.2216 6.22153C14.2216 4.57148 13.5661 2.98901 12.3993 1.82224C11.2325 0.655481 9.65001 0 7.99992 0C6.34984 0 4.76733 0.655481 3.60055 1.82224C2.43376 2.98901 1.77827 4.57148 1.77827 6.22153C1.77827 8.11613 1.4383 9.70262 0.795396 10.8084C0.664209 11.034 0.594669 11.2901 0.593759 11.551C0.592849 11.8119 0.6606 12.0685 0.790211 12.2949C0.919001 12.5215 1.10593 12.7096 1.33171 12.8398C1.55748 12.97 1.81392 13.0376 2.07454 13.0356H4.75429C4.82779 13.8456 5.20152 14.5988 5.80207 15.1474C6.40262 15.6959 7.18657 16 7.99992 16C8.81327 16 9.59723 15.6959 10.1978 15.1474C10.7983 14.5988 11.1721 13.8456 11.2455 13.0356H13.9253C14.1855 13.0372 14.4415 12.9694 14.6669 12.8392C14.8922 12.7091 15.0788 12.5212 15.2074 12.2949C15.3376 12.0688 15.406 11.8124 15.4057 11.5515C15.4054 11.2906 15.3365 11.0343 15.2059 10.8084ZM7.99992 14.2206C7.65843 14.2207 7.32739 14.1028 7.06285 13.8868C6.79831 13.6709 6.6165 13.3702 6.5482 13.0356H9.45164C9.38334 13.3702 9.20154 13.6709 8.93699 13.8868C8.67245 14.1028 8.34142 14.2207 7.99992 14.2206ZM2.56783 11.258C3.22332 9.92482 3.55588 8.23167 3.55588 6.22153C3.55588 5.04292 4.02409 3.91258 4.85751 3.07918C5.69093 2.24578 6.82129 1.77758 7.99992 1.77758C9.17855 1.77758 10.3089 2.24578 11.1423 3.07918C11.9757 3.91258 12.444 5.04292 12.444 6.22153C12.444 8.23093 12.7758 9.92482 13.4313 11.258H2.56783Z" fill="#B2BAC7"/>
</svg>
