<svg width="155" height="1103" viewBox="0 0 155 1103" fill="none" xmlns="http://www.w3.org/2000/svg">
<g clip-path="url(#clip0_1324_21234)">
<rect x="0.742188" y="185.347" width="152.798" height="176.306" rx="14.4661" fill="#DCF6E3"/>
<g opacity="0.3">
<path d="M47.724 213.955C45.5876 212.16 46.8497 209.017 47.7478 207.669C44.2639 202.641 48.5511 195.033 52.6096 193.538C55.8564 192.341 57.5941 195.388 58.0572 197.062C60.7106 194.736 62.6332 194.95 63.6603 195.812C64.6874 196.675 65.7803 198.293 65.189 200.248C64.5977 202.204 62.8397 203.88 62.8397 203.88C62.8397 203.88 65.206 204.816 66.1673 204.923C67.2023 203.691 69.7171 200.898 72.6003 203.32C75.1638 205.472 73.372 209.515 70.2703 212.472C67.742 214.883 64.4377 214.213 63.1121 213.567C64.824 217.785 63.0485 223.467 59.6383 223.96C54.4279 224.714 53.8085 217.601 53.8775 212.467C52.7165 213.71 49.8603 215.749 47.724 213.955Z" fill="#8BDFA2" fill-opacity="0.55"/>
<ellipse cx="2.95235" cy="6.04416" rx="2.95235" ry="6.04416" transform="matrix(0.165596 -0.986194 0.930539 0.366193 42.0137 204.439)" fill="white"/>
<path d="M48.5607 201.158C50.0771 201.755 51.3812 202.608 52.2641 203.489C53.1659 204.389 53.5437 205.224 53.4415 205.833C53.3393 206.441 52.7453 206.894 51.6718 207.017C50.6207 207.137 49.2096 206.921 47.6931 206.324C46.1767 205.728 44.8726 204.875 43.9897 203.993C43.0879 203.094 42.7101 202.258 42.8123 201.65C42.9145 201.041 43.5085 200.588 44.582 200.466C45.6331 200.346 47.0442 200.561 48.5607 201.158Z" stroke="#8BDFA2" stroke-opacity="0.55" stroke-width="0.665768"/>
<ellipse cx="1.01147" cy="2.71852" rx="1.01147" ry="2.71852" transform="matrix(0.362441 -0.932007 0.874065 0.485809 43.6465 203.677)" fill="#8BDFA2"/>
<ellipse cx="2.95235" cy="6.04416" rx="2.95235" ry="6.04416" transform="matrix(-0.979288 0.20247 0.400839 0.916149 52.9609 192.409)" fill="white"/>
<path d="M49.9273 199.075C50.5805 200.568 51.4819 201.839 52.3956 202.688C53.3287 203.555 54.1774 203.902 54.7818 203.777C55.3862 203.652 55.8163 203.041 55.8985 201.964C55.9791 200.909 55.7109 199.507 55.0577 198.014C54.4045 196.521 53.503 195.25 52.5894 194.401C51.6562 193.533 50.8075 193.187 50.2032 193.312C49.5988 193.437 49.1687 194.047 49.0864 195.125C49.0059 196.18 49.274 197.582 49.9273 199.075Z" stroke="#8BDFA2" stroke-opacity="0.55" stroke-width="0.665768"/>
<ellipse cx="1.01885" cy="2.68687" rx="1.01885" ry="2.68687" transform="matrix(-0.917468 0.397809 0.518872 0.854852 52.1934 193.824)" fill="#8BDFA2"/>
</g>
<g opacity="0.3">
<path d="M93.0396 187.098C93.0396 184.308 96.2586 183.253 97.8681 183.074C99.4779 177.173 108.061 175.563 111.817 177.709C114.821 179.426 113.605 182.717 112.621 184.147C116.108 184.684 117.181 186.293 117.181 187.634C117.181 188.976 116.645 190.853 114.767 191.658C112.889 192.463 110.475 192.195 110.475 192.195C110.475 192.195 111.28 194.609 111.817 195.414C113.426 195.414 117.181 195.544 117.181 199.309C117.181 202.656 112.933 203.884 108.674 203.41C105.202 203.025 103.59 200.063 103.233 198.633C101.103 202.656 95.6105 204.95 93.0396 202.656C89.1116 199.151 94.1599 194.103 98.1363 190.853C96.4374 190.764 93.0396 189.888 93.0396 187.098Z" fill="#8BDFA2" fill-opacity="0.55"/>
<ellipse cx="2.95235" cy="6.04416" rx="2.95235" ry="6.04416" transform="matrix(0.861708 -0.507405 0.317998 0.948091 96.6543 176.607)" fill="white"/>
<path d="M103.378 179.511C103.896 181.056 104.081 182.603 103.974 183.846C103.865 185.115 103.468 185.941 102.937 186.255C102.405 186.568 101.676 186.404 100.892 185.661C100.124 184.933 99.3814 183.714 98.8632 182.169C98.345 180.624 98.1596 179.077 98.2666 177.834C98.3758 176.564 98.7724 175.738 99.3042 175.425C99.836 175.112 100.565 175.276 101.349 176.019C102.117 176.746 102.859 177.966 103.378 179.511Z" stroke="#8BDFA2" stroke-opacity="0.55" stroke-width="0.665768"/>
<ellipse cx="2.95235" cy="6.04416" rx="2.95235" ry="6.04416" transform="matrix(-0.784824 -0.619719 -0.443797 0.896127 112.904 177.252)" fill="white"/>
<path d="M105.849 179.215C105.126 180.676 104.732 182.183 104.669 183.429C104.605 184.702 104.886 185.574 105.37 185.957C105.855 186.339 106.599 186.276 107.477 185.646C108.336 185.029 109.237 183.922 109.961 182.462C110.684 181.002 111.078 179.494 111.14 178.248C111.205 176.976 110.924 176.103 110.439 175.721C109.955 175.338 109.211 175.401 108.333 176.031C107.474 176.648 106.572 177.755 105.849 179.215Z" stroke="#8BDFA2" stroke-opacity="0.55" stroke-width="0.665768"/>
</g>
<g opacity="0.3">
<path d="M47.8395 267.67C45.1716 268.486 43.2217 265.716 42.5802 264.229C36.4659 264.414 32.4179 256.676 33.3725 252.458C34.1361 249.083 37.6383 249.284 39.294 249.806C38.7877 246.314 40.0133 244.818 41.296 244.426C42.5786 244.034 44.5311 243.998 45.8496 245.558C47.1681 247.119 47.6172 249.506 47.6172 249.506C47.6172 249.506 49.6907 248.031 50.3035 247.283C49.8331 245.743 48.8598 242.114 52.4604 241.013C55.6617 240.035 58.0773 243.739 58.8697 247.95C59.5157 251.384 57.1546 253.79 55.891 254.551C60.3614 255.411 64.1609 259.993 62.7183 263.122C60.5143 267.903 54.2108 264.551 49.9412 261.698C50.3523 263.349 50.5074 266.855 47.8395 267.67Z" fill="#8BDFA2" fill-opacity="0.55"/>
<ellipse cx="2.95235" cy="6.04416" rx="2.95235" ry="6.04416" transform="matrix(-0.737121 -0.675761 0.813735 -0.581237 36.75 267.28)" fill="white"/>
<path d="M37.5612 260.002C38.8873 259.055 40.3129 258.425 41.5327 258.164C42.7785 257.898 43.6847 258.035 44.1396 258.452C44.5945 258.87 44.6509 259.614 44.1694 260.582C43.6979 261.529 42.7491 262.595 41.423 263.542C40.0969 264.489 38.6713 265.119 37.4516 265.38C36.2057 265.646 35.2996 265.509 34.8446 265.092C34.3897 264.675 34.3333 263.93 34.8148 262.963C35.2863 262.016 36.2352 260.949 37.5612 260.002Z" stroke="#8BDFA2" stroke-opacity="0.55" stroke-width="0.665768"/>
<ellipse cx="1.01147" cy="2.71852" rx="1.01147" ry="2.71852" transform="matrix(-0.584511 -0.811386 0.883331 -0.468749 36.9961 265.496)" fill="#8BDFA2"/>
<ellipse cx="2.95235" cy="6.04416" rx="2.95235" ry="6.04416" transform="matrix(-0.363251 0.931691 0.986712 0.162478 32.6152 251.55)" fill="white"/>
<path d="M36.5551 257.723C38.1631 257.988 39.7201 257.924 40.9299 257.62C42.1655 257.309 42.9178 256.785 43.142 256.21C43.3662 255.635 43.0882 254.942 42.2292 254.287C41.3883 253.645 40.0661 253.107 38.4582 252.842C36.8502 252.577 35.2931 252.641 34.0834 252.946C32.8478 253.256 32.0954 253.78 31.8713 254.355C31.6471 254.93 31.9251 255.623 32.784 256.278C33.625 256.92 34.9471 257.458 36.5551 257.723Z" stroke="#8BDFA2" stroke-opacity="0.55" stroke-width="0.665768"/>
<ellipse cx="1.01885" cy="2.68687" rx="1.01885" ry="2.68687" transform="matrix(-0.165738 0.98617 0.999547 0.0300992 33.3848 252.964)" fill="#8BDFA2"/>
</g>
<g opacity="0.3">
<path d="M158.124 213.955C160.26 212.16 158.998 209.017 158.1 207.669C161.584 202.641 157.297 195.033 153.238 193.538C149.991 192.341 148.254 195.388 147.79 197.062C145.137 194.736 143.214 194.95 142.187 195.812C141.16 196.675 140.067 198.293 140.659 200.248C141.25 202.204 143.008 203.88 143.008 203.88C143.008 203.88 140.642 204.816 139.68 204.923C138.645 203.691 136.131 200.898 133.247 203.32C130.684 205.472 132.476 209.515 135.577 212.472C138.106 214.883 141.41 214.213 142.736 213.567C141.024 217.785 142.799 223.467 146.209 223.96C151.42 224.714 152.039 217.601 151.97 212.467C153.131 213.71 155.987 215.749 158.124 213.955Z" fill="#8BDFA2" fill-opacity="0.55"/>
<ellipse cx="2.95235" cy="6.04416" rx="2.95235" ry="6.04416" transform="matrix(-0.165596 -0.986194 -0.930539 0.366193 163.834 204.439)" fill="white"/>
<path d="M157.287 201.158C155.771 201.755 154.466 202.608 153.584 203.489C152.682 204.389 152.304 205.224 152.406 205.833C152.508 206.441 153.102 206.894 154.176 207.017C155.227 207.137 156.638 206.921 158.155 206.324C159.671 205.728 160.975 204.875 161.858 203.993C162.76 203.094 163.138 202.258 163.035 201.65C162.933 201.041 162.339 200.588 161.266 200.466C160.215 200.346 158.803 200.561 157.287 201.158Z" stroke="#8BDFA2" stroke-opacity="0.55" stroke-width="0.665768"/>
<ellipse cx="2.95235" cy="6.04416" rx="2.95235" ry="6.04416" transform="matrix(0.979288 0.20247 -0.400839 0.916149 152.887 192.409)" fill="white"/>
<path d="M155.92 199.075C155.267 200.568 154.366 201.839 153.452 202.688C152.519 203.555 151.67 203.902 151.066 203.777C150.462 203.652 150.031 203.041 149.949 201.964C149.869 200.909 150.137 199.507 150.79 198.014C151.443 196.521 152.345 195.25 153.258 194.401C154.191 193.533 155.04 193.187 155.644 193.312C156.249 193.437 156.679 194.047 156.761 195.125C156.842 196.18 156.574 197.582 155.92 199.075Z" stroke="#8BDFA2" stroke-opacity="0.55" stroke-width="0.665768"/>
<ellipse cx="1.01885" cy="2.68687" rx="1.01885" ry="2.68687" transform="matrix(0.917468 0.397809 -0.518872 0.854852 153.654 193.824)" fill="#8BDFA2"/>
</g>
<g opacity="0.3">
<path d="M158.006 267.67C160.674 268.486 162.624 265.716 163.266 264.229C169.38 264.414 173.428 256.676 172.473 252.458C171.71 249.083 168.207 249.284 166.552 249.806C167.058 246.314 165.832 244.818 164.55 244.426C163.267 244.034 161.315 243.998 159.996 245.558C158.678 247.119 158.229 249.506 158.229 249.506C158.229 249.506 156.155 248.031 155.542 247.283C156.013 245.743 156.986 242.114 153.385 241.013C150.184 240.035 147.768 243.739 146.976 247.95C146.33 251.384 148.691 253.79 149.955 254.551C145.484 255.411 141.685 259.993 143.127 263.122C145.331 267.903 151.635 264.551 155.905 261.698C155.493 263.349 155.338 266.855 158.006 267.67Z" fill="#8BDFA2" fill-opacity="0.55"/>
</g>
<g opacity="0.3">
<path d="M91.6913 302.697C90.3529 305.144 87.0224 304.526 85.5244 303.911C81.2807 308.316 72.9777 305.611 70.7121 301.926C68.8997 298.979 71.5453 296.675 73.0946 295.891C70.2923 293.748 70.123 291.821 70.7665 290.644C71.4099 289.467 72.7815 288.077 74.8151 288.272C76.8487 288.467 78.8383 289.86 78.8383 289.86C78.8383 289.86 79.2904 287.356 79.2057 286.392C77.7936 285.62 74.5609 283.704 76.3672 280.401C77.9732 277.464 82.2893 278.425 85.7995 280.883C88.6608 282.888 88.6541 286.259 88.2816 287.686C92.0803 285.177 98.0003 285.799 99.1553 289.046C100.92 294.006 94.0688 296.013 89.0211 296.957C90.4688 297.85 93.0297 300.249 91.6913 302.697Z" fill="#7EB1FF"/>
<path d="M78.982 304.395C79.2686 302.791 79.8483 301.344 80.5384 300.305C81.2432 299.244 81.9876 298.709 82.6044 298.69C83.2212 298.67 83.782 299.163 84.1136 300.192C84.4382 301.198 84.5049 302.624 84.2183 304.229C83.9318 305.833 83.3521 307.279 82.662 308.318C81.9572 309.38 81.2128 309.915 80.596 309.934C79.9791 309.954 79.4183 309.461 79.0868 308.432C78.7622 307.425 78.6955 305.999 78.982 304.395Z" fill="white" stroke="#7EB1FF" stroke-width="0.665768"/>
<ellipse cx="1.01147" cy="2.71852" rx="1.01147" ry="2.71852" transform="matrix(-0.985121 -0.171864 0.304224 -0.9526 82.418 308.717)" fill="#0065FF"/>
<path d="M76.6713 303.467C78.0065 302.532 79.0753 301.398 79.7281 300.335C80.3948 299.25 80.5671 298.35 80.3256 297.782C80.0841 297.214 79.4008 296.912 78.3284 297.044C77.2784 297.172 75.9565 297.711 74.6213 298.646C73.2862 299.58 72.2174 300.714 71.5646 301.777C70.8979 302.863 70.7256 303.763 70.9671 304.331C71.2085 304.899 71.8918 305.2 72.9643 305.069C74.0143 304.94 75.3362 304.401 76.6713 303.467Z" fill="white" stroke="#7EB1FF" stroke-width="0.665768"/>
<ellipse cx="1.01885" cy="2.68687" rx="1.01885" ry="2.68687" transform="matrix(0.570646 0.821196 0.735972 -0.677012 71.0762 302.278)" fill="#0065FF"/>
</g>
<g opacity="0.3">
<path d="M128.344 297.94C129.682 300.388 133.013 299.769 134.511 299.154C138.754 303.559 147.057 300.854 149.323 297.169C151.135 294.222 148.49 291.918 146.941 291.135C149.743 288.991 149.912 287.064 149.269 285.887C148.625 284.71 147.254 283.32 145.22 283.515C143.186 283.71 141.197 285.103 141.197 285.103C141.197 285.103 140.745 282.599 140.829 281.635C142.242 280.863 145.474 278.948 143.668 275.644C142.062 272.707 137.746 273.668 134.236 276.127C131.374 278.131 131.381 281.502 131.754 282.929C127.955 280.42 122.035 281.043 120.88 284.289C119.115 289.249 125.966 291.256 131.014 292.2C129.566 293.093 127.005 295.492 128.344 297.94Z" fill="#8BDFA2" fill-opacity="0.55"/>
<ellipse cx="2.95235" cy="6.04416" rx="2.95235" ry="6.04416" transform="matrix(0.999494 0.0317971 -0.175831 -0.98442 136.547 305.411)" fill="white"/>
<path d="M141.053 299.638C140.767 298.034 140.187 296.588 139.497 295.548C138.792 294.487 138.048 293.952 137.431 293.933C136.814 293.913 136.253 294.406 135.922 295.435C135.597 296.442 135.53 297.867 135.817 299.472C136.103 301.076 136.683 302.522 137.373 303.562C138.078 304.623 138.822 305.158 139.439 305.177C140.056 305.197 140.617 304.704 140.948 303.675C141.273 302.668 141.34 301.243 141.053 299.638Z" stroke="#8BDFA2" stroke-opacity="0.55" stroke-width="0.665768"/>
<ellipse cx="1.01147" cy="2.71852" rx="1.01147" ry="2.71852" transform="matrix(0.985121 -0.171864 -0.304224 -0.9526 137.617 303.96)" fill="#8BDFA2"/>
<ellipse cx="2.95235" cy="6.04416" rx="2.95235" ry="6.04416" transform="matrix(-0.3913 0.920263 -0.819306 -0.573356 150.496 297.048)" fill="white"/>
<path d="M143.364 298.71C142.029 297.776 140.96 296.641 140.307 295.579C139.64 294.493 139.468 293.593 139.71 293.025C139.951 292.457 140.634 292.155 141.707 292.287C142.757 292.415 144.079 292.954 145.414 293.889C146.749 294.823 147.818 295.957 148.471 297.02C149.137 298.106 149.31 299.006 149.068 299.574C148.827 300.142 148.143 300.443 147.071 300.312C146.021 300.183 144.699 299.644 143.364 298.71Z" stroke="#8BDFA2" stroke-opacity="0.55" stroke-width="0.665768"/>
<ellipse cx="1.01885" cy="2.68687" rx="1.01885" ry="2.68687" transform="matrix(-0.570646 0.821196 -0.735972 -0.677012 148.959 297.521)" fill="#8BDFA2"/>
</g>
<path d="M45.4983 281.909C45.4983 273.915 54.7225 270.891 59.3346 270.379C63.9478 253.468 88.5435 248.856 99.3051 255.005C107.914 259.925 104.43 269.354 101.611 273.453C111.604 274.991 114.679 279.603 114.679 283.446C114.679 287.29 113.141 292.671 107.761 294.977C102.38 297.283 95.4617 296.514 95.4617 296.514C95.4617 296.514 97.7678 303.432 99.3051 305.738C103.917 305.738 114.679 306.111 114.679 316.9C114.679 326.493 102.506 330.01 90.2998 328.654C80.3504 327.549 75.7321 319.062 74.7072 314.962C68.6052 326.493 52.8653 333.067 45.4983 326.493C34.2422 316.448 48.7085 301.981 60.1033 292.671C55.2349 292.414 45.4983 289.903 45.4983 281.909Z" fill="#7EB1FF"/>
<path d="M75.1237 260.166C76.6087 264.594 77.1397 269.028 76.8332 272.589C76.5202 276.226 75.3838 278.594 73.8598 279.492C72.3359 280.389 70.2478 279.92 68.0005 277.79C65.8001 275.705 63.6722 272.211 62.1872 267.784C60.7022 263.356 60.1711 258.922 60.4776 255.361C60.7906 251.724 61.9271 249.356 63.451 248.458C64.975 247.561 67.063 248.03 69.3104 250.16C71.5107 252.245 73.6387 255.739 75.1237 260.166Z" fill="white" stroke="#7EB1FF" stroke-width="1.90782"/>
<ellipse cx="2.89845" cy="7.79016" rx="2.89845" ry="7.79016" transform="matrix(0.946802 -0.321816 0.19008 0.981769 60.5391 254.022)" fill="#0065FF"/>
<path d="M82.2083 259.324C80.1358 263.508 79.0076 267.829 78.8276 271.399C78.6438 275.045 79.4481 277.546 80.8361 278.641C82.2241 279.737 84.3566 279.556 86.8723 277.751C89.3354 275.984 91.918 272.812 93.9905 268.627C96.063 264.442 97.1912 260.122 97.3712 256.552C97.555 252.905 96.7506 250.405 95.3627 249.309C93.9747 248.213 91.8422 248.394 89.3265 250.199C86.8634 251.966 84.2807 255.139 82.2083 259.324Z" fill="white" stroke="#7EB1FF" stroke-width="1.90782"/>
<ellipse cx="2.91961" cy="7.69946" rx="2.91961" ry="7.69946" transform="matrix(-0.894656 -0.446756 -0.320951 0.947096 97.9082 254.619)" fill="#0065FF"/>
</g>
<g clip-path="url(#clip1_1324_21234)">
<rect x="0.742188" y="370.694" width="153.702" height="176.306" rx="14.4661" fill="#FFF1D5"/>
<path d="M76.207 416.459C91.0045 427.2 97.6696 440.849 95.9784 458.819" stroke="#FFBE3F" stroke-width="3.61653" stroke-linecap="round"/>
<path d="M86.9883 391.442C112.645 410.066 124.202 433.732 121.269 464.889" stroke="#FFBE3F" stroke-opacity="0.3" stroke-width="6.27061" stroke-linecap="round"/>
<path d="M88.0078 348.045C137.254 383.792 159.436 429.217 153.808 489.02" stroke="#FFBE3F" stroke-opacity="0.1" stroke-width="12.0359" stroke-linecap="round"/>
<path d="M9.83015 481.458C16.5621 489.087 35.823 487.255 44.612 485.385C31.1472 515.118 48.5381 519.045 55.2701 510.069C74.8766 483.926 69.295 427.602 53.5871 425.92C42.9281 424.778 41.2451 437.14 41.2451 443.871C35.6349 435.269 23.8542 433.212 18.8052 440.505C13.7563 447.798 24.4158 462.945 32.27 467.994C13.1961 461.262 1.41519 471.921 9.83015 481.458Z" fill="#7EB1FF"/>
<path d="M60.5404 454.784C60.9634 458.204 60.5264 461.374 59.5068 463.729C58.4811 466.097 56.9197 467.541 55.138 467.761C53.3562 467.982 51.4902 466.962 49.9183 464.915C48.3556 462.879 47.1595 459.912 46.7365 456.492C46.3135 453.072 46.7504 449.902 47.7701 447.547C48.7958 445.179 50.3571 443.735 52.1389 443.515C53.9207 443.295 55.7867 444.314 57.3585 446.361C58.9212 448.397 60.1174 451.365 60.5404 454.784Z" fill="white" stroke="#7EB1FF" stroke-width="1.12199"/>
<ellipse cx="56.0071" cy="454.857" rx="3.28399" ry="6.14023" transform="rotate(-7.05123 56.0071 454.857)" fill="#0065FF"/>
<path d="M43.5712 446.183C44.1388 442.573 47.7545 439.383 51.0303 439.383" stroke="#0065FF" stroke-width="1.80826" stroke-linecap="round"/>
<path d="M61.2881 436.526C63.6348 436.158 65.7427 436.785 67.2042 437.753" stroke="#0065FF" stroke-width="1.80826" stroke-linecap="round"/>
<path d="M73.1555 450.617C73.5267 453.618 73.1427 456.397 72.2504 458.457C71.3522 460.532 69.9928 461.778 68.4572 461.968C66.9217 462.158 65.2996 461.28 63.923 459.487C62.5556 457.706 61.5061 455.105 61.1349 452.104C60.7637 449.103 61.1477 446.324 62.04 444.264C62.9382 442.189 64.2976 440.943 65.8332 440.753C67.3687 440.563 68.9908 441.441 70.3674 443.234C71.7348 445.015 72.7843 447.616 73.1555 450.617Z" fill="white" stroke="#7EB1FF" stroke-width="1.12199"/>
<ellipse cx="68.9211" cy="450.674" rx="3.28399" ry="6.14023" transform="rotate(-7.05123 68.9211 450.674)" fill="#0065FF"/>
</g>
<g clip-path="url(#clip2_1324_21234)">
<rect x="0.742188" width="152.798" height="176.306" rx="14.4661" fill="#C4F1FF"/>
<path d="M187.48 134.71C180.497 135.001 176.495 121.315 174.812 115.052L174.83 115.176C175.714 121.366 177.81 136.028 168.919 137.039C161.474 137.886 158.211 124.663 156.901 118.547C156.901 125.973 154.667 136.268 148.6 137.039C139.426 138.205 138.116 127.721 137.787 121.894C137.787 136.021 124.386 138.642 121.515 128.594C116.626 111.483 124.773 82.6139 138.629 78.9831C148.866 76.3005 158.914 77.1773 165.553 78.9831C177.262 82.1678 185.679 88.3596 191.849 102.383C198.019 116.406 197.965 134.274 187.48 134.71Z" fill="#7EB1FF"/>
<path d="M155.59 72.4876C153.842 69.8663 150.597 69.7879 148.6 72.4876" stroke="#0065FF" stroke-width="1.74744" stroke-linecap="round"/>
<path d="M140.736 73.0243L134.279 70.9218" stroke="#0065FF" stroke-width="1.74744" stroke-linecap="round"/>
<path d="M144.669 85.3457C144.669 88.4046 145.528 91.1549 146.894 93.1286C148.262 95.104 150.108 96.2672 152.096 96.2672C154.083 96.2672 155.929 95.104 157.297 93.1286C158.663 91.1549 159.522 88.4046 159.522 85.3457C159.522 82.2868 158.663 79.5364 157.297 77.5628C155.929 75.5874 154.083 74.4242 152.096 74.4242C150.108 74.4242 148.262 75.5874 146.894 77.5628C145.528 79.5364 144.669 82.2868 144.669 85.3457Z" fill="white" stroke="#7EB1FF" stroke-width="0.87372"/>
<ellipse cx="3.05802" cy="4.80546" rx="3.05802" ry="4.80546" transform="matrix(-1 0 0 1 155.59 80.9766)" fill="#0065FF"/>
<path d="M128.067 85.3457C128.067 88.4046 128.926 91.1549 130.293 93.1286C131.66 95.104 133.506 96.2672 135.494 96.2672C137.482 96.2672 139.328 95.104 140.695 93.1286C142.061 91.1549 142.921 88.4046 142.921 85.3457C142.921 82.2868 142.061 79.5364 140.695 77.5628C139.328 75.5874 137.482 74.4242 135.494 74.4242C133.506 74.4242 131.66 75.5874 130.293 77.5628C128.926 79.5364 128.067 82.2868 128.067 85.3457Z" fill="white" stroke="#7EB1FF" stroke-width="0.87372"/>
<ellipse cx="3.05802" cy="4.80546" rx="3.05802" ry="4.80546" transform="matrix(-1 0 0 1 139.863 80.9766)" fill="#0065FF"/>
<path d="M107.015 134.71C100.032 135.001 96.0297 121.315 94.347 115.052L94.3647 115.176C95.2495 121.366 97.345 136.028 88.454 137.039C81.0094 137.886 77.7463 124.663 76.4357 118.547C76.4357 125.973 74.2026 136.268 68.1354 137.039C58.9611 138.205 57.6507 127.721 57.3226 121.894C57.3226 136.021 43.921 138.642 41.05 128.594C36.1608 111.483 44.3084 82.6139 58.164 78.9831C68.4014 76.3005 78.4492 77.1773 85.0885 78.9831C96.7973 82.1678 105.214 88.3596 111.384 102.383C117.554 116.406 117.5 134.274 107.015 134.71Z" fill="#7EB1FF"/>
<path d="M75.125 72.4876C73.3776 69.8663 70.1323 69.7879 68.1352 72.4876" stroke="#0065FF" stroke-width="1.74744" stroke-linecap="round"/>
<path d="M60.2709 73.0243L53.8146 70.9218" stroke="#0065FF" stroke-width="1.74744" stroke-linecap="round"/>
<path d="M64.204 85.3457C64.204 88.4046 65.0631 91.1549 66.4295 93.1286C67.7971 95.104 69.6431 96.2672 71.6307 96.2672C73.6182 96.2672 75.4642 95.104 76.8318 93.1286C78.1982 91.1549 79.0573 88.4046 79.0573 85.3457C79.0573 82.2868 78.1982 79.5364 76.8318 77.5628C75.4642 75.5874 73.6182 74.4242 71.6307 74.4242C69.6431 74.4242 67.7971 75.5874 66.4295 77.5628C65.0631 79.5364 64.204 82.2868 64.204 85.3457Z" fill="white" stroke="#7EB1FF" stroke-width="0.87372"/>
<ellipse cx="3.05802" cy="4.80546" rx="3.05802" ry="4.80546" transform="matrix(-1 0 0 1 75.125 80.9766)" fill="#0065FF"/>
<path d="M47.6025 85.3457C47.6025 88.4046 48.4616 91.1549 49.828 93.1286C51.1955 95.104 53.0415 96.2672 55.0291 96.2672C57.0167 96.2672 58.8627 95.104 60.2302 93.1286C61.5966 91.1549 62.4557 88.4046 62.4557 85.3457C62.4557 82.2868 61.5966 79.5364 60.2302 77.5628C58.8627 75.5874 57.0167 74.4242 55.0291 74.4242C53.0415 74.4242 51.1955 75.5874 49.828 77.5628C48.4616 79.5364 47.6025 82.2868 47.6025 85.3457Z" fill="white" stroke="#7EB1FF" stroke-width="0.87372"/>
<ellipse cx="3.05802" cy="4.80546" rx="3.05802" ry="4.80546" transform="matrix(-1 0 0 1 59.3965 80.9766)" fill="#0065FF"/>
<path d="M26.5448 134.71C19.5611 135.001 15.559 121.315 13.8763 115.052L13.894 115.176C14.7788 121.366 16.8743 136.028 7.98332 137.039C0.538746 137.886 -2.72443 124.663 -4.03501 118.547C-4.03501 125.973 -6.26814 136.268 -12.3354 137.039C-21.5096 138.205 -22.82 127.721 -23.1481 121.894C-23.1481 136.021 -36.5497 138.642 -39.4207 128.594C-44.3099 111.483 -36.1623 82.6139 -22.3067 78.9831C-12.0693 76.3005 -2.02153 77.1773 4.61776 78.9831C16.3266 82.1678 24.7432 88.3596 30.9134 102.383C37.0836 116.406 37.0291 134.274 26.5448 134.71Z" fill="#7EB1FF"/>
</g>
<g clip-path="url(#clip3_1324_21234)">
<rect x="0.742188" y="741.347" width="152.798" height="176.306" rx="14.4661" fill="#DCF6E3"/>
<g opacity="0.3">
<path d="M47.724 769.955C45.5876 768.16 46.8497 765.017 47.7478 763.669C44.2639 758.641 48.5511 751.033 52.6096 749.538C55.8564 748.341 57.5941 751.388 58.0572 753.062C60.7106 750.736 62.6332 750.95 63.6603 751.812C64.6874 752.675 65.7803 754.293 65.189 756.248C64.5977 758.204 62.8397 759.88 62.8397 759.88C62.8397 759.88 65.206 760.816 66.1673 760.923C67.2023 759.691 69.7171 756.898 72.6003 759.32C75.1638 761.472 73.372 765.515 70.2703 768.472C67.742 770.883 64.4377 770.213 63.1121 769.567C64.824 773.785 63.0485 779.467 59.6383 779.96C54.4279 780.714 53.8085 773.601 53.8775 768.467C52.7165 769.71 49.8603 771.749 47.724 769.955Z" fill="#8BDFA2" fill-opacity="0.55"/>
<ellipse cx="2.95235" cy="6.04416" rx="2.95235" ry="6.04416" transform="matrix(0.165596 -0.986194 0.930539 0.366193 42.0137 760.439)" fill="white"/>
<path d="M48.5607 757.158C50.0771 757.755 51.3812 758.608 52.2641 759.489C53.1659 760.389 53.5437 761.224 53.4415 761.833C53.3393 762.441 52.7453 762.894 51.6718 763.017C50.6207 763.137 49.2096 762.921 47.6931 762.324C46.1767 761.728 44.8726 760.875 43.9897 759.993C43.0879 759.094 42.7101 758.258 42.8123 757.65C42.9145 757.041 43.5085 756.588 44.582 756.466C45.6331 756.346 47.0442 756.561 48.5607 757.158Z" stroke="#8BDFA2" stroke-opacity="0.55" stroke-width="0.665768"/>
<ellipse cx="1.01147" cy="2.71852" rx="1.01147" ry="2.71852" transform="matrix(0.362441 -0.932007 0.874065 0.485809 43.6465 759.677)" fill="#8BDFA2"/>
<ellipse cx="2.95235" cy="6.04416" rx="2.95235" ry="6.04416" transform="matrix(-0.979288 0.20247 0.400839 0.916149 52.9609 748.409)" fill="white"/>
<path d="M49.9273 755.075C50.5805 756.568 51.4819 757.839 52.3956 758.688C53.3287 759.555 54.1774 759.902 54.7818 759.777C55.3862 759.652 55.8163 759.041 55.8985 757.964C55.9791 756.909 55.7109 755.507 55.0577 754.014C54.4045 752.521 53.503 751.25 52.5894 750.401C51.6562 749.533 50.8075 749.187 50.2032 749.312C49.5988 749.437 49.1687 750.047 49.0864 751.125C49.0059 752.18 49.274 753.582 49.9273 755.075Z" stroke="#8BDFA2" stroke-opacity="0.55" stroke-width="0.665768"/>
<ellipse cx="1.01885" cy="2.68687" rx="1.01885" ry="2.68687" transform="matrix(-0.917468 0.397809 0.518872 0.854852 52.1934 749.824)" fill="#8BDFA2"/>
</g>
<g opacity="0.3">
<path d="M93.0396 743.098C93.0396 740.308 96.2586 739.253 97.8681 739.074C99.4779 733.173 108.061 731.563 111.817 733.709C114.821 735.426 113.605 738.717 112.621 740.147C116.108 740.684 117.181 742.293 117.181 743.634C117.181 744.976 116.645 746.853 114.767 747.658C112.889 748.463 110.475 748.195 110.475 748.195C110.475 748.195 111.28 750.609 111.817 751.414C113.426 751.414 117.181 751.544 117.181 755.309C117.181 758.656 112.933 759.884 108.674 759.41C105.202 759.025 103.59 756.063 103.233 754.633C101.103 758.656 95.6105 760.95 93.0396 758.656C89.1116 755.151 94.1599 750.103 98.1363 746.853C96.4374 746.764 93.0396 745.888 93.0396 743.098Z" fill="#8BDFA2" fill-opacity="0.55"/>
<ellipse cx="2.95235" cy="6.04416" rx="2.95235" ry="6.04416" transform="matrix(0.861708 -0.507405 0.317998 0.948091 96.6543 732.607)" fill="white"/>
<path d="M103.378 735.511C103.896 737.056 104.081 738.603 103.974 739.846C103.865 741.115 103.468 741.941 102.937 742.255C102.405 742.568 101.676 742.404 100.892 741.661C100.124 740.933 99.3814 739.714 98.8632 738.169C98.345 736.624 98.1596 735.077 98.2666 733.834C98.3758 732.564 98.7724 731.738 99.3042 731.425C99.836 731.112 100.565 731.276 101.349 732.019C102.117 732.746 102.859 733.966 103.378 735.511Z" stroke="#8BDFA2" stroke-opacity="0.55" stroke-width="0.665768"/>
<ellipse cx="2.95235" cy="6.04416" rx="2.95235" ry="6.04416" transform="matrix(-0.784824 -0.619719 -0.443797 0.896127 112.904 733.252)" fill="white"/>
<path d="M105.849 735.215C105.126 736.676 104.732 738.183 104.669 739.429C104.605 740.702 104.886 741.574 105.37 741.957C105.855 742.339 106.599 742.276 107.477 741.646C108.336 741.029 109.237 739.922 109.961 738.462C110.684 737.002 111.078 735.494 111.14 734.248C111.205 732.976 110.924 732.103 110.439 731.721C109.955 731.338 109.211 731.401 108.333 732.031C107.474 732.648 106.572 733.755 105.849 735.215Z" stroke="#8BDFA2" stroke-opacity="0.55" stroke-width="0.665768"/>
</g>
<g opacity="0.3">
<path d="M47.8395 823.67C45.1716 824.486 43.2217 821.716 42.5802 820.229C36.4659 820.414 32.4179 812.676 33.3725 808.458C34.1361 805.083 37.6383 805.284 39.294 805.806C38.7877 802.314 40.0133 800.818 41.296 800.426C42.5786 800.034 44.5311 799.998 45.8496 801.558C47.1681 803.119 47.6172 805.506 47.6172 805.506C47.6172 805.506 49.6907 804.031 50.3035 803.283C49.8331 801.743 48.8598 798.114 52.4604 797.013C55.6617 796.035 58.0773 799.739 58.8697 803.95C59.5157 807.384 57.1546 809.79 55.891 810.551C60.3614 811.411 64.1609 815.993 62.7183 819.122C60.5143 823.903 54.2108 820.551 49.9412 817.698C50.3523 819.349 50.5074 822.855 47.8395 823.67Z" fill="#8BDFA2" fill-opacity="0.55"/>
<ellipse cx="2.95235" cy="6.04416" rx="2.95235" ry="6.04416" transform="matrix(-0.737121 -0.675761 0.813735 -0.581237 36.75 823.28)" fill="white"/>
<path d="M37.5612 816.002C38.8873 815.055 40.3129 814.425 41.5327 814.164C42.7785 813.898 43.6847 814.035 44.1396 814.452C44.5945 814.87 44.6509 815.614 44.1694 816.582C43.6979 817.529 42.7491 818.595 41.423 819.542C40.0969 820.489 38.6713 821.119 37.4516 821.38C36.2057 821.646 35.2996 821.509 34.8446 821.092C34.3897 820.675 34.3333 819.93 34.8148 818.963C35.2863 818.016 36.2352 816.949 37.5612 816.002Z" stroke="#8BDFA2" stroke-opacity="0.55" stroke-width="0.665768"/>
<ellipse cx="1.01147" cy="2.71852" rx="1.01147" ry="2.71852" transform="matrix(-0.584511 -0.811386 0.883331 -0.468749 36.9961 821.496)" fill="#8BDFA2"/>
<ellipse cx="2.95235" cy="6.04416" rx="2.95235" ry="6.04416" transform="matrix(-0.363251 0.931691 0.986712 0.162478 32.6152 807.55)" fill="white"/>
<path d="M36.5551 813.723C38.1631 813.988 39.7201 813.924 40.9299 813.62C42.1655 813.309 42.9178 812.785 43.142 812.21C43.3662 811.635 43.0882 810.942 42.2292 810.287C41.3883 809.645 40.0661 809.107 38.4582 808.842C36.8502 808.577 35.2931 808.641 34.0834 808.946C32.8478 809.256 32.0954 809.78 31.8713 810.355C31.6471 810.93 31.9251 811.623 32.784 812.278C33.625 812.92 34.9471 813.458 36.5551 813.723Z" stroke="#8BDFA2" stroke-opacity="0.55" stroke-width="0.665768"/>
<ellipse cx="1.01885" cy="2.68687" rx="1.01885" ry="2.68687" transform="matrix(-0.165738 0.98617 0.999547 0.0300992 33.3848 808.964)" fill="#8BDFA2"/>
</g>
<g opacity="0.3">
<path d="M158.124 769.955C160.26 768.16 158.998 765.017 158.1 763.669C161.584 758.641 157.297 751.033 153.238 749.538C149.991 748.341 148.254 751.388 147.79 753.062C145.137 750.736 143.214 750.95 142.187 751.812C141.16 752.675 140.067 754.293 140.659 756.248C141.25 758.204 143.008 759.88 143.008 759.88C143.008 759.88 140.642 760.816 139.68 760.923C138.645 759.691 136.131 756.898 133.247 759.32C130.684 761.472 132.476 765.515 135.577 768.472C138.106 770.883 141.41 770.213 142.736 769.567C141.024 773.785 142.799 779.467 146.209 779.96C151.42 780.714 152.039 773.601 151.97 768.467C153.131 769.71 155.987 771.749 158.124 769.955Z" fill="#8BDFA2" fill-opacity="0.55"/>
<ellipse cx="2.95235" cy="6.04416" rx="2.95235" ry="6.04416" transform="matrix(-0.165596 -0.986194 -0.930539 0.366193 163.834 760.439)" fill="white"/>
<path d="M157.287 757.158C155.771 757.755 154.466 758.608 153.584 759.489C152.682 760.389 152.304 761.224 152.406 761.833C152.508 762.441 153.102 762.894 154.176 763.017C155.227 763.137 156.638 762.921 158.155 762.324C159.671 761.728 160.975 760.875 161.858 759.993C162.76 759.094 163.138 758.258 163.035 757.65C162.933 757.041 162.339 756.588 161.266 756.466C160.215 756.346 158.803 756.561 157.287 757.158Z" stroke="#8BDFA2" stroke-opacity="0.55" stroke-width="0.665768"/>
<ellipse cx="2.95235" cy="6.04416" rx="2.95235" ry="6.04416" transform="matrix(0.979288 0.20247 -0.400839 0.916149 152.887 748.409)" fill="white"/>
<path d="M155.92 755.075C155.267 756.568 154.366 757.839 153.452 758.688C152.519 759.555 151.67 759.902 151.066 759.777C150.462 759.652 150.031 759.041 149.949 757.964C149.869 756.909 150.137 755.507 150.79 754.014C151.443 752.521 152.345 751.25 153.258 750.401C154.191 749.533 155.04 749.187 155.644 749.312C156.249 749.437 156.679 750.047 156.761 751.125C156.842 752.18 156.574 753.582 155.92 755.075Z" stroke="#8BDFA2" stroke-opacity="0.55" stroke-width="0.665768"/>
<ellipse cx="1.01885" cy="2.68687" rx="1.01885" ry="2.68687" transform="matrix(0.917468 0.397809 -0.518872 0.854852 153.654 749.824)" fill="#8BDFA2"/>
</g>
<g opacity="0.3">
<path d="M158.006 823.67C160.674 824.486 162.624 821.716 163.266 820.229C169.38 820.414 173.428 812.676 172.473 808.458C171.71 805.083 168.207 805.284 166.552 805.806C167.058 802.314 165.832 800.818 164.55 800.426C163.267 800.034 161.315 799.998 159.996 801.558C158.678 803.119 158.229 805.506 158.229 805.506C158.229 805.506 156.155 804.031 155.542 803.283C156.013 801.743 156.986 798.114 153.385 797.013C150.184 796.035 147.768 799.739 146.976 803.95C146.33 807.384 148.691 809.79 149.955 810.551C145.484 811.411 141.685 815.993 143.127 819.122C145.331 823.903 151.635 820.551 155.905 817.698C155.493 819.349 155.338 822.855 158.006 823.67Z" fill="#8BDFA2" fill-opacity="0.55"/>
</g>
<g opacity="0.3">
<path d="M91.6913 858.697C90.3529 861.144 87.0224 860.526 85.5244 859.911C81.2807 864.316 72.9777 861.611 70.7121 857.926C68.8997 854.979 71.5453 852.675 73.0946 851.891C70.2923 849.748 70.123 847.821 70.7665 846.644C71.4099 845.467 72.7815 844.077 74.8151 844.272C76.8487 844.467 78.8383 845.86 78.8383 845.86C78.8383 845.86 79.2904 843.356 79.2057 842.392C77.7936 841.62 74.5609 839.704 76.3672 836.401C77.9732 833.464 82.2893 834.425 85.7995 836.883C88.6608 838.888 88.6541 842.259 88.2816 843.686C92.0803 841.177 98.0003 841.799 99.1553 845.046C100.92 850.006 94.0688 852.013 89.0211 852.957C90.4688 853.85 93.0297 856.249 91.6913 858.697Z" fill="#7EB1FF"/>
<path d="M78.982 860.395C79.2686 858.791 79.8483 857.344 80.5384 856.305C81.2432 855.244 81.9876 854.709 82.6044 854.69C83.2212 854.67 83.782 855.163 84.1136 856.192C84.4382 857.198 84.5049 858.624 84.2183 860.229C83.9318 861.833 83.3521 863.279 82.662 864.318C81.9572 865.38 81.2128 865.915 80.596 865.934C79.9791 865.954 79.4183 865.461 79.0868 864.432C78.7622 863.425 78.6955 861.999 78.982 860.395Z" fill="white" stroke="#7EB1FF" stroke-width="0.665768"/>
<ellipse cx="1.01147" cy="2.71852" rx="1.01147" ry="2.71852" transform="matrix(-0.985121 -0.171864 0.304224 -0.9526 82.418 864.717)" fill="#0065FF"/>
<path d="M76.6713 859.467C78.0065 858.532 79.0753 857.398 79.7281 856.335C80.3948 855.25 80.5671 854.35 80.3256 853.782C80.0841 853.214 79.4008 852.912 78.3284 853.044C77.2784 853.172 75.9565 853.711 74.6213 854.646C73.2862 855.58 72.2174 856.714 71.5646 857.777C70.8979 858.863 70.7256 859.763 70.9671 860.331C71.2085 860.899 71.8918 861.2 72.9643 861.069C74.0143 860.94 75.3362 860.401 76.6713 859.467Z" fill="white" stroke="#7EB1FF" stroke-width="0.665768"/>
<ellipse cx="1.01885" cy="2.68687" rx="1.01885" ry="2.68687" transform="matrix(0.570646 0.821196 0.735972 -0.677012 71.0762 858.278)" fill="#0065FF"/>
</g>
<g opacity="0.3">
<path d="M128.344 853.94C129.682 856.388 133.013 855.769 134.511 855.154C138.754 859.559 147.057 856.854 149.323 853.169C151.135 850.222 148.49 847.918 146.941 847.135C149.743 844.991 149.912 843.064 149.269 841.887C148.625 840.71 147.254 839.32 145.22 839.515C143.186 839.71 141.197 841.103 141.197 841.103C141.197 841.103 140.745 838.599 140.829 837.635C142.242 836.863 145.474 834.948 143.668 831.644C142.062 828.707 137.746 829.668 134.236 832.127C131.374 834.131 131.381 837.502 131.754 838.929C127.955 836.42 122.035 837.043 120.88 840.289C119.115 845.249 125.966 847.256 131.014 848.2C129.566 849.093 127.005 851.492 128.344 853.94Z" fill="#8BDFA2" fill-opacity="0.55"/>
<ellipse cx="2.95235" cy="6.04416" rx="2.95235" ry="6.04416" transform="matrix(0.999494 0.0317971 -0.175831 -0.98442 136.547 861.411)" fill="white"/>
<path d="M141.053 855.638C140.767 854.034 140.187 852.588 139.497 851.548C138.792 850.487 138.048 849.952 137.431 849.933C136.814 849.913 136.253 850.406 135.922 851.435C135.597 852.442 135.53 853.867 135.817 855.472C136.103 857.076 136.683 858.522 137.373 859.562C138.078 860.623 138.822 861.158 139.439 861.177C140.056 861.197 140.617 860.704 140.948 859.675C141.273 858.668 141.34 857.243 141.053 855.638Z" stroke="#8BDFA2" stroke-opacity="0.55" stroke-width="0.665768"/>
<ellipse cx="1.01147" cy="2.71852" rx="1.01147" ry="2.71852" transform="matrix(0.985121 -0.171864 -0.304224 -0.9526 137.617 859.96)" fill="#8BDFA2"/>
<ellipse cx="2.95235" cy="6.04416" rx="2.95235" ry="6.04416" transform="matrix(-0.3913 0.920263 -0.819306 -0.573356 150.496 853.048)" fill="white"/>
<path d="M143.364 854.71C142.029 853.776 140.96 852.641 140.307 851.579C139.64 850.493 139.468 849.593 139.71 849.025C139.951 848.457 140.634 848.155 141.707 848.287C142.757 848.415 144.079 848.954 145.414 849.889C146.749 850.823 147.818 851.957 148.471 853.02C149.137 854.106 149.31 855.006 149.068 855.574C148.827 856.142 148.143 856.443 147.071 856.312C146.021 856.183 144.699 855.644 143.364 854.71Z" stroke="#8BDFA2" stroke-opacity="0.55" stroke-width="0.665768"/>
<ellipse cx="1.01885" cy="2.68687" rx="1.01885" ry="2.68687" transform="matrix(-0.570646 0.821196 -0.735972 -0.677012 148.959 853.521)" fill="#8BDFA2"/>
</g>
<path d="M45.4983 837.909C45.4983 829.915 54.7225 826.891 59.3346 826.379C63.9478 809.468 88.5435 804.856 99.3051 811.005C107.914 815.925 104.43 825.354 101.611 829.453C111.604 830.991 114.679 835.603 114.679 839.446C114.679 843.29 113.141 848.671 107.761 850.977C102.38 853.283 95.4617 852.514 95.4617 852.514C95.4617 852.514 97.7678 859.432 99.3051 861.738C103.917 861.738 114.679 862.111 114.679 872.9C114.679 882.493 102.506 886.01 90.2998 884.654C80.3504 883.549 75.7321 875.062 74.7072 870.962C68.6052 882.493 52.8653 889.067 45.4983 882.493C34.2422 872.448 48.7085 857.981 60.1033 848.671C55.2349 848.414 45.4983 845.903 45.4983 837.909Z" fill="#7EB1FF"/>
<path d="M75.1237 816.166C76.6087 820.594 77.1397 825.028 76.8332 828.589C76.5202 832.226 75.3838 834.594 73.8598 835.492C72.3359 836.389 70.2478 835.92 68.0005 833.79C65.8001 831.705 63.6722 828.211 62.1872 823.784C60.7022 819.356 60.1711 814.922 60.4776 811.361C60.7906 807.724 61.9271 805.356 63.451 804.458C64.975 803.561 67.063 804.03 69.3104 806.16C71.5107 808.245 73.6387 811.739 75.1237 816.166Z" fill="white" stroke="#7EB1FF" stroke-width="1.90782"/>
<ellipse cx="2.89845" cy="7.79016" rx="2.89845" ry="7.79016" transform="matrix(0.946802 -0.321816 0.19008 0.981769 60.5391 810.022)" fill="#0065FF"/>
<path d="M82.2083 815.324C80.1358 819.508 79.0076 823.829 78.8276 827.399C78.6438 831.045 79.4481 833.546 80.8361 834.641C82.2241 835.737 84.3566 835.556 86.8723 833.751C89.3354 831.984 91.918 828.812 93.9905 824.627C96.063 820.442 97.1912 816.122 97.3712 812.552C97.555 808.905 96.7506 806.405 95.3627 805.309C93.9747 804.213 91.8422 804.394 89.3265 806.199C86.8634 807.966 84.2807 811.139 82.2083 815.324Z" fill="white" stroke="#7EB1FF" stroke-width="1.90782"/>
<ellipse cx="2.91961" cy="7.69946" rx="2.91961" ry="7.69946" transform="matrix(-0.894656 -0.446756 -0.320951 0.947096 97.9082 810.619)" fill="#0065FF"/>
</g>
<g clip-path="url(#clip4_1324_21234)">
<rect x="0.742188" y="926.694" width="153.702" height="176.306" rx="14.4661" fill="#FFF1D5"/>
<path d="M76.207 972.459C91.0045 983.2 97.6696 996.849 95.9784 1014.82" stroke="#FFBE3F" stroke-width="3.61653" stroke-linecap="round"/>
<path d="M86.9883 947.442C112.645 966.066 124.202 989.732 121.269 1020.89" stroke="#FFBE3F" stroke-opacity="0.3" stroke-width="6.27061" stroke-linecap="round"/>
<path d="M88.0078 904.045C137.254 939.792 159.436 985.217 153.808 1045.02" stroke="#FFBE3F" stroke-opacity="0.1" stroke-width="12.0359" stroke-linecap="round"/>
<path d="M9.83015 1037.46C16.5621 1045.09 35.823 1043.25 44.612 1041.38C31.1472 1071.12 48.5381 1075.04 55.2701 1066.07C74.8766 1039.93 69.295 983.602 53.5871 981.92C42.9281 980.778 41.2451 993.14 41.2451 999.871C35.6349 991.269 23.8542 989.212 18.8052 996.505C13.7563 1003.8 24.4158 1018.95 32.27 1023.99C13.1961 1017.26 1.41519 1027.92 9.83015 1037.46Z" fill="#7EB1FF"/>
<path d="M60.5404 1010.78C60.9634 1014.2 60.5264 1017.37 59.5068 1019.73C58.4811 1022.1 56.9197 1023.54 55.138 1023.76C53.3562 1023.98 51.4902 1022.96 49.9183 1020.91C48.3556 1018.88 47.1595 1015.91 46.7365 1012.49C46.3135 1009.07 46.7504 1005.9 47.7701 1003.55C48.7958 1001.18 50.3571 999.735 52.1389 999.515C53.9207 999.295 55.7867 1000.31 57.3585 1002.36C58.9212 1004.4 60.1174 1007.36 60.5404 1010.78Z" fill="white" stroke="#7EB1FF" stroke-width="1.12199"/>
<ellipse cx="56.0071" cy="1010.86" rx="3.28399" ry="6.14023" transform="rotate(-7.05123 56.0071 1010.86)" fill="#0065FF"/>
<path d="M43.5712 1002.18C44.1388 998.573 47.7545 995.383 51.0303 995.383" stroke="#0065FF" stroke-width="1.80826" stroke-linecap="round"/>
<path d="M61.2881 992.526C63.6348 992.158 65.7427 992.785 67.2042 993.753" stroke="#0065FF" stroke-width="1.80826" stroke-linecap="round"/>
<path d="M73.1555 1006.62C73.5267 1009.62 73.1427 1012.4 72.2504 1014.46C71.3522 1016.53 69.9928 1017.78 68.4572 1017.97C66.9217 1018.16 65.2996 1017.28 63.923 1015.49C62.5556 1013.71 61.5061 1011.11 61.1349 1008.1C60.7637 1005.1 61.1477 1002.32 62.04 1000.26C62.9382 998.189 64.2976 996.943 65.8332 996.753C67.3687 996.563 68.9908 997.441 70.3674 999.234C71.7348 1001.01 72.7843 1003.62 73.1555 1006.62Z" fill="white" stroke="#7EB1FF" stroke-width="1.12199"/>
<ellipse cx="68.9211" cy="1006.67" rx="3.28399" ry="6.14023" transform="rotate(-7.05123 68.9211 1006.67)" fill="#0065FF"/>
</g>
<g clip-path="url(#clip5_1324_21234)">
<rect x="0.742188" y="556" width="152.798" height="176.306" rx="14.4661" fill="#C4F1FF"/>
<path d="M187.48 690.71C180.497 691.001 176.495 677.315 174.812 671.052L174.83 671.176C175.714 677.366 177.81 692.028 168.919 693.039C161.474 693.886 158.211 680.663 156.901 674.547C156.901 681.973 154.667 692.268 148.6 693.039C139.426 694.205 138.116 683.721 137.787 677.894C137.787 692.021 124.386 694.642 121.515 684.594C116.626 667.483 124.773 638.614 138.629 634.983C148.866 632.3 158.914 633.177 165.553 634.983C177.262 638.168 185.679 644.36 191.849 658.383C198.019 672.406 197.965 690.274 187.48 690.71Z" fill="#7EB1FF"/>
<path d="M155.59 628.488C153.842 625.866 150.597 625.788 148.6 628.488" stroke="#0065FF" stroke-width="1.74744" stroke-linecap="round"/>
<path d="M140.736 629.024L134.279 626.922" stroke="#0065FF" stroke-width="1.74744" stroke-linecap="round"/>
<path d="M144.669 641.346C144.669 644.405 145.528 647.155 146.894 649.129C148.262 651.104 150.108 652.267 152.096 652.267C154.083 652.267 155.929 651.104 157.297 649.129C158.663 647.155 159.522 644.405 159.522 641.346C159.522 638.287 158.663 635.536 157.297 633.563C155.929 631.587 154.083 630.424 152.096 630.424C150.108 630.424 148.262 631.587 146.894 633.563C145.528 635.536 144.669 638.287 144.669 641.346Z" fill="white" stroke="#7EB1FF" stroke-width="0.87372"/>
<ellipse cx="3.05802" cy="4.80546" rx="3.05802" ry="4.80546" transform="matrix(-1 0 0 1 155.59 636.977)" fill="#0065FF"/>
<path d="M128.067 641.346C128.067 644.405 128.926 647.155 130.293 649.129C131.66 651.104 133.506 652.267 135.494 652.267C137.482 652.267 139.328 651.104 140.695 649.129C142.061 647.155 142.921 644.405 142.921 641.346C142.921 638.287 142.061 635.536 140.695 633.563C139.328 631.587 137.482 630.424 135.494 630.424C133.506 630.424 131.66 631.587 130.293 633.563C128.926 635.536 128.067 638.287 128.067 641.346Z" fill="white" stroke="#7EB1FF" stroke-width="0.87372"/>
<ellipse cx="3.05802" cy="4.80546" rx="3.05802" ry="4.80546" transform="matrix(-1 0 0 1 139.863 636.977)" fill="#0065FF"/>
<path d="M107.015 690.71C100.032 691.001 96.0297 677.315 94.347 671.052L94.3647 671.176C95.2495 677.366 97.345 692.028 88.454 693.039C81.0094 693.886 77.7463 680.663 76.4357 674.547C76.4357 681.973 74.2026 692.268 68.1354 693.039C58.9611 694.205 57.6507 683.721 57.3226 677.894C57.3226 692.021 43.921 694.642 41.05 684.594C36.1608 667.483 44.3084 638.614 58.164 634.983C68.4014 632.3 78.4492 633.177 85.0885 634.983C96.7973 638.168 105.214 644.36 111.384 658.383C117.554 672.406 117.5 690.274 107.015 690.71Z" fill="#7EB1FF"/>
<path d="M75.125 628.488C73.3776 625.866 70.1323 625.788 68.1352 628.488" stroke="#0065FF" stroke-width="1.74744" stroke-linecap="round"/>
<path d="M60.2709 629.024L53.8146 626.922" stroke="#0065FF" stroke-width="1.74744" stroke-linecap="round"/>
<path d="M64.204 641.346C64.204 644.405 65.0631 647.155 66.4295 649.129C67.7971 651.104 69.6431 652.267 71.6307 652.267C73.6182 652.267 75.4642 651.104 76.8318 649.129C78.1982 647.155 79.0573 644.405 79.0573 641.346C79.0573 638.287 78.1982 635.536 76.8318 633.563C75.4642 631.587 73.6182 630.424 71.6307 630.424C69.6431 630.424 67.7971 631.587 66.4295 633.563C65.0631 635.536 64.204 638.287 64.204 641.346Z" fill="white" stroke="#7EB1FF" stroke-width="0.87372"/>
<ellipse cx="3.05802" cy="4.80546" rx="3.05802" ry="4.80546" transform="matrix(-1 0 0 1 75.125 636.977)" fill="#0065FF"/>
<path d="M47.6025 641.346C47.6025 644.405 48.4616 647.155 49.828 649.129C51.1955 651.104 53.0415 652.267 55.0291 652.267C57.0167 652.267 58.8627 651.104 60.2302 649.129C61.5966 647.155 62.4557 644.405 62.4557 641.346C62.4557 638.287 61.5966 635.536 60.2302 633.563C58.8627 631.587 57.0167 630.424 55.0291 630.424C53.0415 630.424 51.1955 631.587 49.828 633.563C48.4616 635.536 47.6025 638.287 47.6025 641.346Z" fill="white" stroke="#7EB1FF" stroke-width="0.87372"/>
<ellipse cx="3.05802" cy="4.80546" rx="3.05802" ry="4.80546" transform="matrix(-1 0 0 1 59.3965 636.977)" fill="#0065FF"/>
<path d="M26.5448 690.71C19.5611 691.001 15.559 677.315 13.8763 671.052L13.894 671.176C14.7788 677.366 16.8743 692.028 7.98332 693.039C0.538746 693.886 -2.72443 680.663 -4.03501 674.547C-4.03501 681.973 -6.26814 692.268 -12.3354 693.039C-21.5096 694.205 -22.82 683.721 -23.1481 677.894C-23.1481 692.021 -36.5497 694.642 -39.4207 684.594C-44.3099 667.483 -36.1623 638.614 -22.3067 634.983C-12.0693 632.3 -2.02153 633.177 4.61776 634.983C16.3266 638.168 24.7432 644.36 30.9134 658.383C37.0836 672.406 37.0291 690.274 26.5448 690.71Z" fill="#7EB1FF"/>
</g>
<defs>
<clipPath id="clip0_1324_21234">
<rect width="152.798" height="176.306" fill="white" transform="translate(0.742188 185.347)"/>
</clipPath>
<clipPath id="clip1_1324_21234">
<rect width="153.702" height="176.306" fill="white" transform="translate(0.742188 370.694)"/>
</clipPath>
<clipPath id="clip2_1324_21234">
<rect width="152.798" height="176.306" fill="white" transform="translate(0.742188)"/>
</clipPath>
<clipPath id="clip3_1324_21234">
<rect width="152.798" height="176.306" fill="white" transform="translate(0.742188 741.347)"/>
</clipPath>
<clipPath id="clip4_1324_21234">
<rect width="153.702" height="176.306" fill="white" transform="translate(0.742188 926.694)"/>
</clipPath>
<clipPath id="clip5_1324_21234">
<rect width="152.798" height="176.306" fill="white" transform="translate(0.742188 556)"/>
</clipPath>
</defs>
</svg>
