<svg xmlns="http://www.w3.org/2000/svg" width="24" height="24" viewBox="0 0 24 24" fill="none">
<path opacity="0.3" d="M17.65 6.34989C16.8118 5.50416 15.7944 4.8575 14.6728 4.45768C13.5512 4.05786 12.3542 3.91508 11.17 4.03989C7.50001 4.40989 4.48001 7.38989 4.07001 11.0599C3.52001 15.9099 7.27001 19.9999 12 19.9999C13.5101 19.9999 14.9892 19.5714 16.2655 18.7642C17.5418 17.957 18.5628 16.8043 19.21 15.4399C19.53 14.7699 19.05 13.9999 18.31 13.9999C17.94 13.9999 17.59 14.1999 17.43 14.5299C16.8494 15.7789 15.8564 16.7899 14.6179 17.3927C13.3795 17.9955 11.9712 18.1534 10.63 17.8399C8.41001 17.3499 6.62001 15.5399 6.15001 13.3199C5.95244 12.4422 5.95473 11.5312 6.1567 10.6545C6.35868 9.77775 6.75517 8.95764 7.31686 8.25481C7.87854 7.55198 8.59105 6.98442 9.40168 6.59411C10.2123 6.20379 11.1003 6.00071 12 5.99989C13.66 5.99989 15.14 6.68989 16.22 7.77989L14.71 9.28989C14.08 9.91989 14.52 10.9999 15.41 10.9999H19C19.55 10.9999 20 10.5499 20 9.99989V6.40989C20 5.51989 18.92 5.06989 18.29 5.69989L17.65 6.34989Z" fill="#454545"/>
</svg>