<svg xmlns="http://www.w3.org/2000/svg" width="18" height="18" viewBox="0 0 18 18" fill="none">
  <path d="M16.7551 7.98177L16.7495 7.9793L1.73496 1.75173C1.60867 1.69887 1.47125 1.67814 1.33499 1.69139C1.19873 1.70464 1.06788 1.75146 0.954141 1.82766C0.833975 1.9064 0.735269 2.01378 0.666905 2.14014C0.598541 2.26649 0.562664 2.40787 0.5625 2.55153V6.53438C0.562567 6.73078 0.631146 6.92101 0.756417 7.07227C0.881688 7.22353 1.0558 7.32635 1.24875 7.36302L9.4377 8.87719C9.46987 8.8833 9.49891 8.90044 9.5198 8.92566C9.5407 8.95088 9.55213 8.98261 9.55213 9.01536C9.55213 9.04811 9.5407 9.07984 9.5198 9.10506C9.49891 9.13028 9.46987 9.14742 9.4377 9.15352L1.2491 10.6677C1.05621 10.7043 0.882103 10.807 0.756776 10.9581C0.631449 11.1092 0.562746 11.2993 0.5625 11.4956V15.4792C0.562407 15.6164 0.596375 15.7514 0.661355 15.8723C0.726336 15.9931 0.820296 16.0959 0.934805 16.1714C1.07255 16.2629 1.2342 16.3118 1.39957 16.312C1.51454 16.3119 1.62833 16.2889 1.73426 16.2442L16.7484 10.0521L16.7551 10.049C16.9572 9.9621 17.1294 9.8179 17.2504 9.63419C17.3714 9.45049 17.4359 9.23534 17.4359 9.01536C17.4359 8.79538 17.3714 8.58023 17.2504 8.39653C17.1294 8.21282 16.9572 8.06862 16.7551 7.98177Z" fill="white"/>
</svg>