<svg width="26" height="26" viewBox="0 0 26 26" fill="none" xmlns="http://www.w3.org/2000/svg">
<path d="M13.344 9.51695C12.6259 9.44603 11.9034 9.5988 11.2755 9.95436C10.6476 10.3099 10.1449 10.8509 9.83627 11.5031C9.52766 12.1554 9.42821 12.8872 9.55153 13.5981C9.67484 14.3091 10.0149 14.9646 10.5252 15.4749C11.0354 15.9851 11.6909 16.3252 12.4019 16.4485C13.1129 16.5718 13.8446 16.4724 14.4969 16.1638C15.1492 15.8552 15.6901 15.3525 16.0457 14.7245C16.4012 14.0966 16.554 13.3741 16.4831 12.656C16.4022 11.851 16.0455 11.0987 15.4734 10.5266C14.9013 9.95451 14.149 9.59781 13.344 9.51695ZM21.7714 13C21.7691 13.3804 21.7412 13.7603 21.6877 14.137L24.1601 16.0762C24.2678 16.1654 24.3403 16.2899 24.3649 16.4276C24.3894 16.5653 24.3643 16.7072 24.2941 16.8281L21.9551 20.875C21.8841 20.9948 21.7731 21.0856 21.6416 21.1315C21.5101 21.1775 21.3667 21.1755 21.2365 21.126L18.7811 20.1373C18.6457 20.0834 18.499 20.0639 18.3542 20.0806C18.2094 20.0973 18.071 20.1496 17.9515 20.233C17.5767 20.491 17.1829 20.7203 16.7735 20.9187C16.6448 20.9813 16.5334 21.0746 16.4493 21.1904C16.3652 21.3062 16.3109 21.4409 16.2911 21.5827L15.9231 24.2016C15.8989 24.34 15.8275 24.4656 15.7209 24.5571C15.6144 24.6485 15.4794 24.7002 15.339 24.7031H10.6611C10.523 24.7007 10.3899 24.6514 10.2836 24.5632C10.1773 24.475 10.1043 24.3533 10.0765 24.218L9.70895 21.6029C9.68831 21.4596 9.63258 21.3236 9.54672 21.207C9.46085 21.0904 9.34751 20.9968 9.21676 20.9346C8.80782 20.7372 8.41536 20.5073 8.04317 20.2472C7.924 20.1643 7.78608 20.1123 7.64183 20.096C7.49757 20.0797 7.35152 20.0995 7.21684 20.1537L4.76192 21.1419C4.63182 21.1914 4.48842 21.1935 4.35696 21.1476C4.22551 21.1018 4.11444 21.0111 4.04333 20.8914L1.70434 16.8445C1.63402 16.7236 1.60889 16.5817 1.63343 16.444C1.65796 16.3063 1.73057 16.1818 1.83833 16.0926L3.92794 14.452C4.04242 14.3611 4.13239 14.243 4.18969 14.1086C4.24699 13.9741 4.2698 13.8275 4.25606 13.682C4.23637 13.4539 4.22434 13.2264 4.22434 12.9984C4.22434 12.7703 4.23583 12.5461 4.25606 12.323C4.2683 12.1783 4.24437 12.0329 4.18642 11.8998C4.12847 11.7668 4.03833 11.6502 3.92411 11.5606L1.83559 9.92C1.72959 9.83036 1.65851 9.70628 1.63481 9.5695C1.61111 9.43271 1.63631 9.29195 1.70598 9.17188L4.04497 5.125C4.116 5.00523 4.22703 4.91438 4.35849 4.86845C4.48995 4.82253 4.6334 4.82449 4.76356 4.87398L7.21903 5.86273C7.35444 5.91665 7.50111 5.93613 7.64589 5.91942C7.79068 5.90272 7.92906 5.85036 8.04864 5.76703C8.42339 5.50897 8.81717 5.27972 9.22661 5.08125C9.35533 5.01869 9.46667 4.92539 9.55079 4.80961C9.63491 4.69382 9.68923 4.5591 9.70895 4.41734L10.077 1.79836C10.1012 1.66004 10.1726 1.53442 10.2792 1.44295C10.3857 1.35148 10.5207 1.29985 10.6611 1.29688H15.339C15.4771 1.29926 15.6102 1.34861 15.7165 1.43678C15.8228 1.52496 15.8958 1.6467 15.9236 1.78195L16.2911 4.39711C16.3118 4.54043 16.3675 4.67642 16.4534 4.79301C16.5392 4.9096 16.6526 5.00317 16.7833 5.06539C17.1923 5.26279 17.5847 5.49267 17.9569 5.75281C18.0761 5.83573 18.214 5.88769 18.3583 5.90401C18.5025 5.92034 18.6486 5.90051 18.7832 5.84633L21.2382 4.85813C21.3683 4.80858 21.5117 4.80654 21.6431 4.85236C21.7746 4.89818 21.8856 4.98892 21.9568 5.10859L24.2957 9.15547C24.3661 9.27638 24.3912 9.41832 24.3667 9.55602C24.3421 9.69372 24.2695 9.81824 24.1618 9.90742L22.0722 11.548C21.9572 11.6386 21.8667 11.7565 21.8089 11.891C21.7511 12.0255 21.7279 12.1723 21.7413 12.318C21.7593 12.5445 21.7714 12.772 21.7714 13Z" stroke="#46505E" stroke-width="1.4" stroke-linecap="round" stroke-linejoin="round"/>
</svg>
