<svg width="16" height="15" viewBox="0 0 16 15" fill="none" xmlns="http://www.w3.org/2000/svg">
<g id="Mask group">
<mask id="mask0_1055_12924" style="mask-type:luminance" maskUnits="userSpaceOnUse" x="0" y="0" width="16" height="15">
<g id="Group">
<g id="Group_2">
<path id="Vector" d="M6.1423 13.7478C5.06722 13.4268 4.09356 12.8329 3.3161 12.024C3.56624 11.7273 3.72218 11.3627 3.76395 10.9769C3.80572 10.5911 3.73142 10.2016 3.55057 9.85827C3.36972 9.51492 3.09053 9.23335 2.74874 9.04957C2.40695 8.86579 2.0181 8.78817 1.63195 8.82665C1.54398 8.39573 1.49977 7.95703 1.5 7.51722C1.5 6.83797 1.604 6.18277 1.7977 5.56722H1.825C2.15642 5.56733 2.4824 5.48296 2.77216 5.32209C3.06192 5.16122 3.30589 4.92915 3.48105 4.64779C3.6562 4.36644 3.75676 4.04508 3.77322 3.71407C3.78968 3.38306 3.7215 3.05332 3.57513 2.75597C4.33712 2.04644 5.25864 1.53067 6.2619 1.2522C6.42517 1.57278 6.67395 1.84194 6.9807 2.02991C7.28746 2.21787 7.64023 2.31731 8 2.31722C8.35976 2.31731 8.71254 2.21787 9.01929 2.02991C9.32605 1.84194 9.57483 1.57278 9.7381 1.2522C10.7414 1.53067 11.6629 2.04644 12.4249 2.75597C12.2774 3.0554 12.2093 3.38766 12.227 3.72095C12.2447 4.05424 12.3477 4.3774 12.5261 4.65951C12.7044 4.94161 12.9522 5.17321 13.2457 5.33214C13.5392 5.49108 13.8686 5.57202 14.2023 5.56722C14.4002 6.19828 14.5006 6.85586 14.5 7.51722C14.5 7.96572 14.4545 8.40382 14.368 8.82697C13.9819 8.7885 13.593 8.86612 13.2513 9.04989C12.9095 9.23367 12.6303 9.51525 12.4494 9.85859C12.2686 10.2019 12.1943 10.5914 12.2361 10.9773C12.2778 11.3631 12.4338 11.7276 12.6839 12.0243C11.9064 12.8331 10.9327 13.4269 9.8577 13.7478C9.73145 13.3543 9.48353 13.0111 9.14966 12.7676C8.8158 12.5241 8.41323 12.3929 8 12.3929C7.58676 12.3929 7.1842 12.5241 6.85033 12.7676C6.51647 13.0111 6.26855 13.3543 6.1423 13.7478Z" fill="white" stroke="white" stroke-width="2.4" stroke-linejoin="round"/>
<path id="Vector_2" d="M7.99997 9.79219C8.29873 9.79219 8.59456 9.73334 8.87058 9.61901C9.14659 9.50468 9.39739 9.33711 9.60864 9.12586C9.8199 8.9146 9.98747 8.66381 10.1018 8.38779C10.2161 8.11178 10.275 7.81594 10.275 7.51719C10.275 7.21843 10.2161 6.9226 10.1018 6.64658C9.98747 6.37057 9.8199 6.11977 9.60864 5.90852C9.39739 5.69727 9.14659 5.52969 8.87058 5.41536C8.59456 5.30103 8.29873 5.24219 7.99997 5.24219C7.39661 5.24219 6.81795 5.48187 6.39131 5.90852C5.96466 6.33516 5.72498 6.91382 5.72498 7.51719C5.72498 8.12055 5.96466 8.69921 6.39131 9.12586C6.81795 9.5525 7.39661 9.79219 7.99997 9.79219Z" fill="black" stroke="black" stroke-width="2.4" stroke-linejoin="round"/>
</g>
</g>
</mask>
<g mask="url(#mask0_1055_12924)">
<path id="Vector_3" d="M0.200073 -0.282715H15.8001V15.3173H0.200073V-0.282715Z" fill="#5F6C7B"/>
</g>
</g>
</svg>
