<svg width="14" height="15" viewBox="0 0 14 15" fill="none" xmlns="http://www.w3.org/2000/svg">
<path d="M9.33333 14.5C8.90556 14.5 8.53922 14.3476 8.23433 14.0427C7.92945 13.7378 7.77726 13.3717 7.77778 12.9444V9.83333C7.77778 9.40556 7.93022 9.03922 8.23511 8.73433C8.54 8.42945 8.90608 8.27726 9.33333 8.27778H12.4444C12.8722 8.27778 13.2386 8.43022 13.5434 8.73511C13.8483 9.04 14.0005 9.40608 14 9.83333V12.9444C14 13.3722 13.8476 13.7386 13.5427 14.0434C13.2378 14.3483 12.8717 14.5005 12.4444 14.5H9.33333ZM9.33333 6.72222C8.90556 6.72222 8.53922 6.56978 8.23433 6.26489C7.92945 5.96 7.77726 5.59393 7.77778 5.16667V2.05556C7.77778 1.62778 7.93022 1.26145 8.23511 0.956557C8.54 0.651668 8.90608 0.499483 9.33333 0.500001H12.4444C12.8722 0.500001 13.2386 0.652446 13.5434 0.957335C13.8483 1.26222 14.0005 1.6283 14 2.05556V5.16667C14 5.59445 13.8476 5.96078 13.5427 6.26567C13.2378 6.57056 12.8717 6.72274 12.4444 6.72222H9.33333ZM1.55556 6.72222C1.12778 6.72222 0.761446 6.56978 0.456557 6.26489C0.151668 5.96 -0.000517198 5.59393 1.32051e-06 5.16667V2.05556C1.32051e-06 1.62778 0.152446 1.26145 0.457335 0.956557C0.762224 0.651668 1.1283 0.499483 1.55556 0.500001H4.66667C5.09445 0.500001 5.46078 0.652446 5.76567 0.957335C6.07056 1.26222 6.22274 1.6283 6.22222 2.05556V5.16667C6.22222 5.59445 6.06978 5.96078 5.76489 6.26567C5.46 6.57056 5.09393 6.72274 4.66667 6.72222H1.55556ZM1.55556 14.5C1.12778 14.5 0.761446 14.3476 0.456557 14.0427C0.151668 13.7378 -0.000517198 13.3717 1.32051e-06 12.9444V9.83333C1.32051e-06 9.40556 0.152446 9.03922 0.457335 8.73433C0.762224 8.42945 1.1283 8.27726 1.55556 8.27778H4.66667C5.09445 8.27778 5.46078 8.43022 5.76567 8.73511C6.07056 9.04 6.22274 9.40608 6.22222 9.83333V12.9444C6.22222 13.3722 6.06978 13.7386 5.76489 14.0434C5.46 14.3483 5.09393 14.5005 4.66667 14.5H1.55556Z" fill="#3C4450"/>
</svg>
