<svg width="390" height="104" viewBox="0 0 390 104" fill="none" xmlns="http://www.w3.org/2000/svg">
<g clip-path="url(#clip0_875_18772)">
<g opacity="0.7">
<path d="M26.0525 88.5089C33.4982 96.9475 54.8014 94.9206 64.5223 92.8523C49.6298 125.738 68.8647 130.081 76.3105 120.154C97.9959 91.2392 91.8225 28.943 74.4491 27.0818C62.6599 25.8188 60.7985 39.4915 60.7985 46.9371C54.5933 37.423 41.5635 35.1477 35.9792 43.2139C30.3949 51.2802 42.1847 68.0331 50.8717 73.6174C29.7754 66.1716 16.7452 77.9608 26.0525 88.5089Z" fill="#7EB1FF"/>
<path d="M96.0926 54.3976C96.5031 57.717 96.0784 60.7902 95.0915 63.0691C94.0981 65.3633 92.5945 66.7417 90.8961 66.9517C89.1978 67.1618 87.4037 66.1914 85.8811 64.2084C84.3687 62.2386 83.208 59.3615 82.7974 56.0421C82.3868 52.7226 82.8116 49.6494 83.7984 47.3705C84.7919 45.0763 86.2955 43.6979 87.9938 43.4879C89.6922 43.2778 91.4863 44.2482 93.0088 46.2312C94.5212 48.201 95.682 51.0781 96.0926 54.3976Z" fill="white" stroke="#7EB1FF" stroke-width="1.24096"/>
<path d="M82.1396 59.0069C82.6074 62.7893 82.1241 66.2953 80.9963 68.8997C79.8619 71.5194 78.135 73.1159 76.1643 73.3596C74.1936 73.6034 72.1297 72.4758 70.3912 70.2115C68.6628 67.9603 67.3398 64.6778 66.872 60.8954C66.4041 57.113 66.8874 53.607 68.0152 51.0026C69.1496 48.3829 70.8765 46.7864 72.8472 46.5426C74.8179 46.2989 76.8818 47.4265 78.6203 49.6908C80.3487 51.9419 81.6717 55.2245 82.1396 59.0069Z" fill="white" stroke="#7EB1FF" stroke-width="1.24096"/>
<ellipse cx="77.1259" cy="59.087" rx="3.63221" ry="6.7913" transform="rotate(-7.05123 77.1259 59.087)" fill="#0065FF"/>
<ellipse cx="91.4091" cy="54.461" rx="3.63221" ry="6.7913" transform="rotate(-7.05123 91.4091 54.461)" fill="#0065FF"/>
<path d="M63.3737 49.4944C64.5224 43.8346 67.6246 41.9733 71.6239 41.9732" stroke="#0065FF" stroke-width="1.24096" stroke-linecap="round"/>
<path d="M82.9672 38.8123C85.5628 38.4051 87.8941 39.099 89.5107 40.1699" stroke="#0065FF" stroke-width="1.24096" stroke-linecap="round"/>
</g>
<g opacity="0.5">
<path d="M221.052 88.5089C228.498 96.9475 249.801 94.9206 259.522 92.8523C244.63 125.738 263.865 130.081 271.311 120.154C292.996 91.2392 286.823 28.943 269.449 27.0818C257.66 25.8188 255.798 39.4915 255.798 46.9371C249.593 37.423 236.564 35.1477 230.979 43.2139C225.395 51.2802 237.185 68.0331 245.872 73.6174C224.775 66.1716 211.745 77.9608 221.052 88.5089Z" fill="#7EB1FF"/>
<path d="M291.093 54.3976C291.503 57.717 291.078 60.7902 290.092 63.0691C289.098 65.3633 287.594 66.7417 285.896 66.9517C284.198 67.1618 282.404 66.1914 280.881 64.2084C279.369 62.2386 278.208 59.3615 277.797 56.0421C277.387 52.7226 277.812 49.6494 278.798 47.3705C279.792 45.0763 281.295 43.6979 282.994 43.4879C284.692 43.2778 286.486 44.2482 288.009 46.2312C289.521 48.201 290.682 51.0781 291.093 54.3976Z" fill="white" stroke="#7EB1FF" stroke-width="1.24096"/>
<path d="M277.14 59.0069C277.607 62.7893 277.124 66.2953 275.996 68.8997C274.862 71.5194 273.135 73.1159 271.164 73.3596C269.194 73.6034 267.13 72.4758 265.391 70.2115C263.663 67.9603 262.34 64.6778 261.872 60.8954C261.404 57.113 261.887 53.607 263.015 51.0026C264.15 48.3829 265.877 46.7864 267.847 46.5426C269.818 46.2989 271.882 47.4265 273.62 49.6908C275.349 51.9419 276.672 55.2245 277.14 59.0069Z" fill="white" stroke="#7EB1FF" stroke-width="1.24096"/>
<ellipse cx="272.126" cy="59.087" rx="3.63221" ry="6.7913" transform="rotate(-7.05123 272.126 59.087)" fill="#0065FF"/>
<ellipse cx="286.409" cy="54.461" rx="3.63221" ry="6.7913" transform="rotate(-7.05123 286.409 54.461)" fill="#0065FF"/>
<path d="M258.374 49.4944C259.522 43.8346 262.625 41.9733 266.624 41.9732" stroke="#0065FF" stroke-width="1.24096" stroke-linecap="round"/>
<path d="M277.967 38.8123C280.563 38.4051 282.894 39.099 284.511 40.1699" stroke="#0065FF" stroke-width="1.24096" stroke-linecap="round"/>
</g>
<g opacity="0.3">
<path d="M192.182 13.3416C184.736 4.9031 163.433 6.93001 153.712 8.99828C168.605 -23.8872 149.37 -28.2308 141.924 -18.303C120.238 10.6114 126.412 72.9076 143.785 74.7688C155.574 76.0318 157.436 62.3591 157.436 54.9135C163.641 64.4276 176.671 66.7029 182.255 58.6366C187.839 50.5704 176.05 33.8175 167.363 28.2332C188.459 35.679 201.489 23.8898 192.182 13.3416Z" fill="#7EB1FF"/>
<path d="M122.142 47.453C121.731 44.1336 122.156 41.0604 123.143 38.7815C124.136 36.4873 125.64 35.1089 127.338 34.8989C129.037 34.6888 130.831 35.6592 132.353 37.6422C133.866 39.612 135.026 42.4891 135.437 45.8085C135.848 49.128 135.423 52.2011 134.436 54.4801C133.442 56.7743 131.939 58.1526 130.241 58.3627C128.542 58.5728 126.748 57.6024 125.226 55.6193C123.713 53.6495 122.552 50.7725 122.142 47.453Z" fill="white" stroke="#7EB1FF" stroke-width="1.24096"/>
<path d="M136.095 42.8437C135.627 39.0613 136.11 35.5553 137.238 32.9509C138.372 30.3312 140.099 28.7347 142.07 28.4909C144.041 28.2472 146.105 29.3748 147.843 31.6391C149.572 33.8902 150.895 37.1728 151.362 40.9552C151.83 44.7376 151.347 48.2436 150.219 50.848C149.085 53.4677 147.358 55.0642 145.387 55.3079C143.416 55.5517 141.353 54.4241 139.614 52.1598C137.886 49.9087 136.563 46.6261 136.095 42.8437Z" fill="white" stroke="#7EB1FF" stroke-width="1.24096"/>
<ellipse cx="141.108" cy="42.7636" rx="3.63221" ry="6.7913" transform="rotate(172.949 141.108 42.7636)" fill="#0065FF"/>
<ellipse cx="126.825" cy="47.3895" rx="3.63221" ry="6.7913" transform="rotate(172.949 126.825 47.3895)" fill="#0065FF"/>
<path d="M154.861 52.3562C153.712 58.0159 150.61 59.8773 146.611 59.8774" stroke="#0065FF" stroke-width="1.24096" stroke-linecap="round"/>
<path d="M135.267 63.0383C132.672 63.4455 130.34 62.7515 128.724 61.6807" stroke="#0065FF" stroke-width="1.24096" stroke-linecap="round"/>
</g>
<g opacity="0.3">
<path d="M387.182 13.3416C379.736 4.9031 358.433 6.93001 348.712 8.99828C363.605 -23.8872 344.37 -28.2308 336.924 -18.303C315.238 10.6114 321.412 72.9076 338.785 74.7688C350.574 76.0318 352.436 62.3591 352.436 54.9135C358.641 64.4276 371.671 66.7029 377.255 58.6366C382.839 50.5704 371.05 33.8175 362.363 28.2332C383.459 35.679 396.489 23.8898 387.182 13.3416Z" fill="#7EB1FF"/>
<path d="M317.142 47.453C316.731 44.1336 317.156 41.0604 318.143 38.7815C319.136 36.4873 320.64 35.1089 322.338 34.8989C324.037 34.6888 325.831 35.6592 327.353 37.6422C328.866 39.612 330.026 42.4891 330.437 45.8085C330.848 49.128 330.423 52.2011 329.436 54.4801C328.442 56.7743 326.939 58.1526 325.241 58.3627C323.542 58.5728 321.748 57.6024 320.226 55.6193C318.713 53.6495 317.552 50.7725 317.142 47.453Z" fill="white" stroke="#7EB1FF" stroke-width="1.24096"/>
<path d="M331.095 42.8437C330.627 39.0613 331.11 35.5553 332.238 32.9509C333.372 30.3312 335.099 28.7347 337.07 28.4909C339.041 28.2472 341.105 29.3748 342.843 31.6391C344.572 33.8902 345.895 37.1728 346.362 40.9552C346.83 44.7376 346.347 48.2436 345.219 50.848C344.085 53.4677 342.358 55.0642 340.387 55.3079C338.416 55.5517 336.353 54.4241 334.614 52.1598C332.886 49.9087 331.563 46.6261 331.095 42.8437Z" fill="white" stroke="#7EB1FF" stroke-width="1.24096"/>
<ellipse cx="336.108" cy="42.7636" rx="3.63221" ry="6.7913" transform="rotate(172.949 336.108 42.7636)" fill="#0065FF"/>
<ellipse cx="321.825" cy="47.3895" rx="3.63221" ry="6.7913" transform="rotate(172.949 321.825 47.3895)" fill="#0065FF"/>
<path d="M349.861 52.3562C348.712 58.0159 345.61 59.8773 341.611 59.8774" stroke="#0065FF" stroke-width="1.24096" stroke-linecap="round"/>
<path d="M330.267 63.0383C327.672 63.4455 325.34 62.7515 323.724 61.6807" stroke="#0065FF" stroke-width="1.24096" stroke-linecap="round"/>
</g>
</g>
<defs>
<clipPath id="clip0_875_18772">
<rect width="390" height="104" fill="white"/>
</clipPath>
</defs>
</svg>
