<svg xmlns="http://www.w3.org/2000/svg" width="32" height="32" viewBox="0 0 32 32" fill="none">
<g opacity="0.2">
<path d="M22.3984 16.3984C22.3984 15.868 22.6092 15.3593 22.9842 14.9842C23.3593 14.6092 23.868 14.3984 24.3984 14.3984C24.9289 14.3984 25.4376 14.6092 25.8127 14.9842C26.1877 15.3593 26.3984 15.868 26.3984 16.3984C26.3984 16.9289 26.1877 17.4376 25.8127 17.8127C25.4376 18.1877 24.9289 18.3984 24.3984 18.3984C23.868 18.3984 23.3593 18.1877 22.9842 17.8127C22.6092 17.4376 22.3984 16.9289 22.3984 16.3984ZM14.3984 16.3984C14.3984 15.868 14.6092 15.3593 14.9842 14.9842C15.3593 14.6092 15.868 14.3984 16.3984 14.3984C16.9289 14.3984 17.4376 14.6092 17.8127 14.9842C18.1877 15.3593 18.3984 15.868 18.3984 16.3984C18.3984 16.9289 18.1877 17.4376 17.8127 17.8127C17.4376 18.1877 16.9289 18.3984 16.3984 18.3984C15.868 18.3984 15.3593 18.1877 14.9842 17.8127C14.6092 17.4376 14.3984 16.9289 14.3984 16.3984ZM6.39844 16.3984C6.39844 15.868 6.60915 15.3593 6.98422 14.9842C7.3593 14.6092 7.868 14.3984 8.39844 14.3984C8.92887 14.3984 9.43758 14.6092 9.81265 14.9842C10.1877 15.3593 10.3984 15.868 10.3984 16.3984C10.3984 16.9289 10.1877 17.4376 9.81265 17.8127C9.43758 18.1877 8.92887 18.3984 8.39844 18.3984C7.868 18.3984 7.3593 18.1877 6.98422 17.8127C6.60915 17.4376 6.39844 16.9289 6.39844 16.3984Z" fill="black"/>
</g>
</svg>