<svg width="70" height="24" viewBox="0 0 70 24" fill="none" xmlns="http://www.w3.org/2000/svg">
<path d="M24.3543 4.31592C24.8647 4.82635 24.8647 5.6539 24.3543 6.16435L20.6575 9.86149C20.1471 10.372 19.3195 10.372 18.809 9.86154L16.9603 8.01287C16.4499 7.50243 16.4499 6.67483 16.9603 6.16438L20.6573 2.4674C21.1677 1.95696 21.9953 1.95696 22.5058 2.4674L24.3543 4.31592Z" fill="#287DFF"/>
<path fill-rule="evenodd" clip-rule="evenodd" d="M14.4122 0.236389C15.1341 0.236389 15.7193 0.821585 15.7193 1.54346V12V14.6142V22.4566C15.7193 23.1784 15.1341 23.7636 14.4122 23.7636H11.798C11.0762 23.7636 10.491 23.1784 10.491 22.4566V15.9212H1.34149C0.619619 15.9212 0.0344238 15.336 0.0344238 14.6142V12C0.0344238 11.2781 0.619618 10.6929 1.34149 10.6929H6.79395L10.491 14.39L11.508 15.407C12.0185 15.9175 12.8461 15.9175 13.3565 15.407L15.205 13.5585C15.7154 13.0481 15.7154 12.2205 15.205 11.7101L14.1879 10.6929H10.491H6.79395L2.26565 6.16465C1.75521 5.6542 1.75521 4.82661 2.26565 4.31617L4.11413 2.4677C4.62457 1.95725 5.45216 1.95725 5.9626 2.4677L10.491 6.99607V1.54346C10.491 0.821584 11.0762 0.236389 11.798 0.236389H14.4122Z" fill="#8EC7FF"/>
<path d="M13.3565 15.407L15.205 13.5585C15.7154 13.0481 15.7154 12.2205 15.205 11.7101L14.1879 10.6929H10.491V14.39L11.508 15.407C12.0185 15.9175 12.8461 15.9175 13.3565 15.407Z" fill="#8EC7FF"/>
<path d="M6.79395 10.6929L10.491 14.39V10.6929H6.79395Z" fill="#8EC7FF"/>
<path d="M35.2254 20.2363C31.659 20.2363 29.5106 17.7656 29.5106 14.1992C29.5106 10.6328 31.6805 8.18361 35.2254 8.18361C38.2332 8.18361 40.2742 9.94532 40.4031 12.6094H37.4168C37.2234 11.4492 36.4715 10.6543 35.2684 10.6543C33.743 10.6543 32.7332 11.9434 32.7332 14.1563C32.7332 16.4121 33.7215 17.7012 35.2684 17.7012C36.3856 17.7012 37.2234 17.0137 37.4168 15.7676H40.4031C40.2527 18.4102 38.3191 20.2363 35.2254 20.2363Z" fill="#287DFF"/>
<path d="M47.6219 20.2363C44.0984 20.2363 41.907 17.8086 41.907 14.1992C41.907 10.5899 44.0984 8.18361 47.6219 8.18361C51.1453 8.18361 53.3582 10.5899 53.3582 14.1992C53.3582 17.8086 51.1453 20.2363 47.6219 20.2363ZM47.6434 17.7656C49.2762 17.7656 50.1141 16.2402 50.1141 14.1992C50.1141 12.1367 49.2762 10.6113 47.6434 10.6113C45.9891 10.6113 45.1297 12.1367 45.1297 14.1992C45.1297 16.2402 45.9891 17.7656 47.6434 17.7656Z" fill="#287DFF"/>
<path d="M58.5359 4.44532V20H55.3563V4.44532H58.5359Z" fill="#287DFF"/>
<path d="M64.1863 4.44532V20H61.0066V4.44532H64.1863Z" fill="#287DFF"/>
<path d="M66.657 20V8.334H69.8367V20H66.657ZM68.2469 6.80861C67.2801 6.80861 66.5067 6.07814 66.5067 5.19728C66.5067 4.29493 67.2801 3.56446 68.2469 3.56446C69.1922 3.56446 69.9656 4.29493 69.9656 5.19728C69.9656 6.07814 69.1922 6.80861 68.2469 6.80861Z" fill="#287DFF"/>
</svg>
