<svg width="17" height="17" viewBox="0 0 17 17" fill="none" xmlns="http://www.w3.org/2000/svg">
<path d="M16.7365 3.27434C17.0878 3.62146 17.0878 4.18425 16.7366 4.53139L14.1925 7.04567C13.8412 7.39283 13.2717 7.39285 12.9204 7.04571L11.6481 5.78849C11.2968 5.44136 11.2968 4.87854 11.6481 4.53141L14.1923 2.01723C14.5436 1.6701 15.1131 1.67009 15.4644 2.01723L16.7365 3.27434Z" fill="#287DFF"/>
<path fill-rule="evenodd" clip-rule="evenodd" d="M9.89454 0.5C10.3913 0.5 10.794 0.89797 10.794 1.38889V8.5V10.2778V15.6111C10.794 16.102 10.3913 16.5 9.89454 16.5H8.09554C7.59875 16.5 7.19603 16.102 7.19603 15.6111V11.1667H0.899504C0.402722 11.1667 0 10.7687 0 10.2778V8.5C0 8.00908 0.402722 7.61111 0.899504 7.61111H4.6518L7.19603 10.1253L7.89595 10.817C8.24723 11.1641 8.81676 11.1641 9.16804 10.817L10.4401 9.5599C10.7914 9.21277 10.7914 8.64996 10.4401 8.30282L9.74016 7.61111H7.19603H4.6518L1.5355 4.53159C1.18422 4.18445 1.18422 3.62164 1.5355 3.27451L2.80759 2.01743C3.15887 1.6703 3.7284 1.6703 4.07968 2.01743L7.19603 5.09701V1.38889C7.19603 0.897969 7.59875 0.5 8.09554 0.5H9.89454Z" fill="#8EC7FF"/>
<path d="M9.16804 10.817L10.4401 9.5599C10.7914 9.21277 10.7914 8.64996 10.4401 8.30282L9.74016 7.61111H7.19603V10.1253L7.89595 10.817C8.24723 11.1641 8.81676 11.1641 9.16804 10.817Z" fill="#8EC7FF"/>
<path d="M4.6518 7.61111L7.19603 10.1253V7.61111H4.6518Z" fill="#8EC7FF"/>
</svg>
