<svg width="11" height="11" viewBox="0 0 11 11" fill="none" xmlns="http://www.w3.org/2000/svg">
<path d="M10.6367 7.19727C10.6367 7.60286 10.5592 7.98568 10.4043 8.3457C10.2539 8.70117 10.0443 9.01335 9.77539 9.28223C9.51107 9.54655 9.19889 9.75618 8.83887 9.91113C8.4834 10.0615 8.10286 10.1367 7.69727 10.1367C7.33268 10.1367 6.98177 10.0729 6.64453 9.94531C6.31185 9.81771 6.01107 9.63086 5.74219 9.38477C5.47331 9.63086 5.17025 9.81771 4.83301 9.94531C4.49577 10.0729 4.14486 10.1367 3.78027 10.1367C3.37467 10.1367 2.99186 10.0615 2.63184 9.91113C2.27637 9.75618 1.96419 9.54655 1.69531 9.28223C1.43099 9.01335 1.22135 8.70117 1.06641 8.3457C0.916016 7.98568 0.84082 7.60286 0.84082 7.19727V0.197266H2.80273V7.19727C2.80273 7.33398 2.8278 7.46387 2.87793 7.58691C2.92806 7.7054 2.99642 7.81022 3.08301 7.90137C3.17415 7.98796 3.27897 8.05632 3.39746 8.10645C3.51595 8.15658 3.64355 8.18164 3.78027 8.18164C3.91699 8.18164 4.0446 8.15658 4.16309 8.10645C4.28158 8.05632 4.38411 7.98796 4.4707 7.90137C4.56185 7.81022 4.63249 7.7054 4.68262 7.58691C4.73275 7.46387 4.75781 7.33398 4.75781 7.19727V0.197266H6.71973V7.19727C6.71973 7.33398 6.74479 7.46387 6.79492 7.58691C6.84505 7.7054 6.91341 7.81022 7 7.90137C7.09115 7.98796 7.19596 8.05632 7.31445 8.10645C7.43294 8.15658 7.56055 8.18164 7.69727 8.18164C7.83398 8.18164 7.96159 8.15658 8.08008 8.10645C8.19857 8.05632 8.30111 7.98796 8.3877 7.90137C8.47884 7.81022 8.54948 7.7054 8.59961 7.58691C8.6543 7.46387 8.68164 7.33398 8.68164 7.19727V0.197266H10.6367V7.19727Z" fill="currentColor"/>
</svg>
